<svg width="43" height="42" viewBox="0 0 43 42" fill="none" xmlns="http://www.w3.org/2000/svg">
<rect x="0.400391" width="42" height="42" rx="7" fill="#1B2129"/>
<path d="M29.4478 24.7323C29.3752 24.6448 29.304 24.5573 29.234 24.4728C28.2724 23.3086 27.6905 22.606 27.6905 19.3103C27.6905 17.6041 27.2827 16.2041 26.4788 15.1541C25.8861 14.3784 25.0848 13.79 24.0287 13.3551C24.0151 13.3475 24.003 13.3376 23.9928 13.3258C23.613 12.0526 22.5735 11.2 21.4011 11.2C20.2287 11.2 19.1896 12.0526 18.8098 13.3245C18.7996 13.3358 18.7877 13.3454 18.7744 13.3529C16.3098 14.3683 15.1121 16.3165 15.1121 19.309C15.1121 22.606 14.5311 23.3086 13.5686 24.4715C13.4986 24.556 13.4274 24.6417 13.3548 24.731C13.1674 24.9572 13.0486 25.2324 13.0126 25.5241C12.9766 25.8158 13.0248 26.1117 13.1515 26.3768C13.4213 26.9456 13.9961 27.2986 14.6522 27.2986H28.1548C28.8078 27.2986 29.3787 26.946 29.6493 26.3799C29.7766 26.1147 29.8253 25.8186 29.7896 25.5265C29.7539 25.2345 29.6353 24.9589 29.4478 24.7323Z" fill="white"/>
<path d="M21.4011 30.8C22.0328 30.7994 22.6525 30.6278 23.1946 30.3033C23.7367 29.9788 24.181 29.5135 24.4802 28.9568C24.4943 28.9301 24.5013 28.9002 24.5005 28.87C24.4996 28.8399 24.491 28.8104 24.4754 28.7846C24.4598 28.7587 24.4378 28.7374 24.4116 28.7225C24.3853 28.7077 24.3557 28.6999 24.3255 28.7H18.4776C18.4474 28.6998 18.4176 28.7076 18.3913 28.7224C18.365 28.7372 18.3429 28.7585 18.3273 28.7844C18.3117 28.8102 18.303 28.8397 18.3022 28.8699C18.3013 28.9001 18.3083 28.93 18.3224 28.9568C18.6216 29.5134 19.0658 29.9787 19.6078 30.3032C20.1498 30.6277 20.7695 30.7994 21.4011 30.8Z" fill="white"/>
<path d="M32.6008 14.7C32.6008 17.4062 30.407 19.6 27.7008 19.6C24.9946 19.6 22.8008 17.4062 22.8008 14.7C22.8008 11.9939 24.9946 9.80005 27.7008 9.80005C30.407 9.80005 32.6008 11.9939 32.6008 14.7Z" fill="#29C859"/>
<path d="M27.502 16.0996C27.3115 16.2869 27.0026 16.2869 26.8122 16.0996L25.7436 15.0484C25.5532 14.8612 25.5532 14.5573 25.7436 14.3701C25.9339 14.1828 26.2429 14.1828 26.4333 14.3701L27.07 14.9963C27.1181 15.0435 27.1961 15.0435 27.2443 14.9963L28.9682 13.3005C29.1586 13.1132 29.4675 13.1132 29.658 13.3005C29.7494 13.3905 29.8008 13.5125 29.8008 13.6397C29.8008 13.7669 29.7494 13.8889 29.658 13.9789L27.502 16.0996Z" fill="white"/>
</svg>
