<svg width="22" height="26" viewBox="0 0 22 26" fill="none" xmlns="http://www.w3.org/2000/svg">
<path d="M20.9904 17.5681C20.9007 17.46 20.8126 17.3518 20.7262 17.2474C19.5376 15.8086 18.8185 14.9402 18.8185 10.8668C18.8185 8.75798 18.3144 7.02765 17.3208 5.72989C16.5882 4.77118 15.5979 4.0439 14.2926 3.50641C14.2758 3.49706 14.2608 3.48479 14.2483 3.47018C13.7788 1.89666 12.494 0.842773 11.045 0.842773C9.59598 0.842773 8.31175 1.89666 7.84225 3.46856C7.82972 3.48263 7.81493 3.49451 7.79849 3.50371C4.75242 4.75874 3.27207 7.16662 3.27207 10.8652C3.27207 14.9402 2.55404 15.8086 1.36436 17.2458C1.27791 17.3502 1.18985 17.4562 1.10016 17.5665C0.868494 17.8461 0.721713 18.1863 0.67719 18.5468C0.632667 18.9073 0.692267 19.273 0.848936 19.6007C1.18229 20.3037 1.89275 20.74 2.7037 20.74H19.3922C20.1994 20.74 20.905 20.3042 21.2394 19.6045C21.3968 19.2767 21.457 18.9107 21.4128 18.5498C21.3687 18.1889 21.2221 17.8482 20.9904 17.5681Z" fill="#2B61EE"/>
<path d="M11.045 25.0675C11.8257 25.0669 12.5917 24.8548 13.2617 24.4537C13.9317 24.0526 14.4808 23.4775 14.8507 22.7894C14.8681 22.7564 14.8767 22.7195 14.8757 22.6822C14.8746 22.6449 14.864 22.6085 14.8447 22.5766C14.8255 22.5446 14.7983 22.5182 14.7658 22.4999C14.7334 22.4816 14.6967 22.4719 14.6594 22.472H7.43164C7.39432 22.4719 7.35761 22.4814 7.32507 22.4997C7.29253 22.518 7.26527 22.5444 7.24596 22.5763C7.22665 22.6083 7.21594 22.6447 7.21486 22.6821C7.21379 22.7194 7.2224 22.7564 7.23985 22.7894C7.60968 23.4774 8.15866 24.0525 8.82858 24.4535C9.4985 24.8546 10.2644 25.0668 11.045 25.0675Z" fill="#2B61EE"/>
</svg>
