<svg width="22" height="23" viewBox="0 0 22 23" fill="none" xmlns="http://www.w3.org/2000/svg">
<path d="M0.751221 5.20306V2.59358C0.752852 2.45462 0.78185 2.31735 0.836556 2.1896C0.891263 2.06185 0.970606 1.94614 1.07005 1.84907C1.1695 1.752 1.2871 1.67547 1.41613 1.62387C1.54516 1.57227 1.6831 1.5466 1.82206 1.54833H5.13689V3.01022C5.13689 3.10715 5.1754 3.20011 5.24394 3.26865C5.31248 3.33719 5.40544 3.37569 5.50237 3.37569C5.5993 3.37569 5.69226 3.33719 5.7608 3.26865C5.82934 3.20011 5.86784 3.10715 5.86784 3.01022V1.54833H10.9845V3.01022C10.9845 3.10715 11.023 3.20011 11.0915 3.26865C11.16 3.33719 11.253 3.37569 11.3499 3.37569C11.4469 3.37569 11.5398 3.33719 11.6084 3.26865C11.6769 3.20011 11.7154 3.10715 11.7154 3.01022V1.54833H16.832V3.01022C16.832 3.10715 16.8705 3.20011 16.9391 3.26865C17.0076 3.33719 17.1006 3.37569 17.1975 3.37569C17.2944 3.37569 17.3874 3.33719 17.4559 3.26865C17.5245 3.20011 17.563 3.10715 17.563 3.01022V1.54833H20.1469C20.2858 1.5466 20.4238 1.57227 20.5528 1.62387C20.6818 1.67547 20.7994 1.752 20.8989 1.84907C20.9983 1.94614 21.0777 2.06185 21.1324 2.1896C21.1871 2.31735 21.2161 2.45462 21.2177 2.59358V5.20306H0.751221ZM21.9486 17.4464C21.947 18.6575 21.4651 19.8185 20.6087 20.6749C19.7523 21.5313 18.5913 22.0131 17.3802 22.0148C16.5031 22.0167 15.6445 21.7626 14.9096 21.2839H1.82206C1.6831 21.2856 1.54516 21.2599 1.41613 21.2083C1.2871 21.1567 1.1695 21.0802 1.07005 20.9831C0.970606 20.8861 0.891263 20.7703 0.836556 20.6426C0.78185 20.5148 0.752852 20.3776 0.751221 20.2386V5.934H21.2177V14.9758C21.6965 15.7107 21.9505 16.5693 21.9486 17.4464ZM16.4666 8.49231C16.4666 8.63688 16.5094 8.7782 16.5897 8.8984C16.6701 9.01861 16.7842 9.11229 16.9178 9.16762C17.0513 9.22294 17.1983 9.23742 17.3401 9.20921C17.4819 9.18101 17.6121 9.11139 17.7144 9.00917C17.8166 8.90694 17.8862 8.7767 17.9144 8.63491C17.9426 8.49312 17.9281 8.34615 17.8728 8.21259C17.8175 8.07903 17.7238 7.96487 17.6036 7.88455C17.4834 7.80423 17.3421 7.76137 17.1975 7.76137C17.0038 7.76193 16.8182 7.83913 16.6813 7.97608C16.5443 8.11304 16.4671 8.29863 16.4666 8.49231ZM12.0809 13.2435C12.0809 13.0989 12.038 12.9576 11.9577 12.8374C11.8774 12.7172 11.7632 12.6235 11.6297 12.5682C11.4961 12.5128 11.3491 12.4984 11.2073 12.5266C11.0655 12.5548 10.9353 12.6244 10.8331 12.7266C10.7309 12.8288 10.6612 12.9591 10.633 13.1009C10.6048 13.2426 10.6193 13.3896 10.6746 13.5232C10.7299 13.6567 10.8236 13.7709 10.9438 13.8512C11.064 13.9315 11.2054 13.9744 11.3499 13.9744C11.5436 13.9738 11.7292 13.8966 11.8662 13.7597C12.0031 13.6227 12.0803 13.4371 12.0809 13.2435ZM10.619 8.49231C10.619 8.63688 10.6619 8.7782 10.7422 8.8984C10.8225 9.01861 10.9366 9.11229 11.0702 9.16762C11.2038 9.22294 11.3507 9.23742 11.4925 9.20921C11.6343 9.18101 11.7646 9.11139 11.8668 9.00917C11.969 8.90694 12.0386 8.7767 12.0668 8.63491C12.095 8.49312 12.0806 8.34615 12.0252 8.21259C11.9699 8.07903 11.8762 7.96487 11.756 7.88455C11.6358 7.80423 11.4945 7.76137 11.3499 7.76137C11.1562 7.76193 10.9707 7.83913 10.8337 7.97608C10.6967 8.11304 10.6196 8.29863 10.619 8.49231ZM6.23331 17.9946C6.23331 17.85 6.19044 17.7087 6.11013 17.5885C6.02981 17.4683 5.91565 17.3746 5.78209 17.3193C5.64853 17.264 5.50156 17.2495 5.35977 17.2777C5.21798 17.3059 5.08774 17.3755 4.98551 17.4777C4.88329 17.58 4.81367 17.7102 4.78547 17.852C4.75726 17.9938 4.77174 18.1408 4.82706 18.2743C4.88238 18.4079 4.97607 18.522 5.09628 18.6024C5.21648 18.6827 5.3578 18.7255 5.50237 18.7255C5.69605 18.725 5.88164 18.6478 6.0186 18.5108C6.15555 18.3739 6.23274 18.1883 6.23331 17.9946ZM4.77142 8.49231C4.77142 8.63688 4.81429 8.7782 4.89461 8.8984C4.97493 9.01861 5.08908 9.11229 5.22265 9.16762C5.35621 9.22294 5.50318 9.23742 5.64497 9.20921C5.78676 9.18101 5.917 9.11139 6.01922 9.00917C6.12145 8.90694 6.19106 8.7767 6.21927 8.63491C6.24747 8.49312 6.233 8.34615 6.17767 8.21259C6.12235 8.07903 6.02866 7.96487 5.90846 7.88455C5.78826 7.80423 5.64693 7.76137 5.50237 7.76137C5.30868 7.76193 5.12309 7.83913 4.98614 7.97608C4.84918 8.11304 4.77199 8.29863 4.77142 8.49231ZM6.23331 13.2435C6.23331 13.0989 6.19044 12.9576 6.11013 12.8374C6.02981 12.7172 5.91565 12.6235 5.78209 12.5682C5.64853 12.5128 5.50156 12.4984 5.35977 12.5266C5.21798 12.5548 5.08774 12.6244 4.98551 12.7266C4.88329 12.8288 4.81367 12.9591 4.78547 13.1009C4.75726 13.2426 4.77174 13.3896 4.82706 13.5232C4.88238 13.6567 4.97607 13.7709 5.09628 13.8512C5.21648 13.9315 5.3578 13.9744 5.50237 13.9744C5.69605 13.9738 5.88164 13.8966 6.0186 13.7597C6.15555 13.6227 6.23274 13.4371 6.23331 13.2435ZM21.2177 17.4464C21.2186 16.8163 21.0629 16.1959 20.7645 15.641C20.6832 15.4868 20.5904 15.3389 20.4868 15.1987C19.9505 14.4598 19.1681 13.9365 18.2804 13.7231C17.3926 13.5097 16.4579 13.6201 15.6443 14.0345C14.8307 14.4489 14.1918 15.14 13.8425 15.9836C13.4931 16.8271 13.4563 17.7677 13.7387 18.6359C14.021 19.5042 14.604 20.2432 15.3827 20.7199C16.1614 21.1966 17.0847 21.3797 17.9864 21.2363C18.888 21.0929 19.7089 20.6323 20.3013 19.9376C20.8937 19.2428 21.2186 18.3594 21.2177 17.4464ZM5.86784 1.18286C5.86784 1.08593 5.82934 0.992967 5.7608 0.924427C5.69226 0.855888 5.5993 0.817383 5.50237 0.817383C5.40544 0.817383 5.31248 0.855888 5.24394 0.924427C5.1754 0.992967 5.13689 1.08593 5.13689 1.18286V1.54833H5.86784V1.18286ZM11.7154 1.18286C11.7154 1.08593 11.6769 0.992967 11.6084 0.924427C11.5398 0.855888 11.4469 0.817383 11.3499 0.817383C11.253 0.817383 11.16 0.855888 11.0915 0.924427C11.023 0.992967 10.9845 1.08593 10.9845 1.18286V1.54833H11.7154V1.18286ZM17.563 1.18286C17.563 1.08593 17.5245 0.992967 17.4559 0.924427C17.3874 0.855888 17.2944 0.817383 17.1975 0.817383C17.1006 0.817383 17.0076 0.855888 16.9391 0.924427C16.8705 0.992967 16.832 1.08593 16.832 1.18286V1.54833H17.563V1.18286ZM18.6594 17.6291H17.563V16.1672C17.563 16.0703 17.5245 15.9774 17.4559 15.9088C17.3874 15.8403 17.2944 15.8018 17.1975 15.8018C17.1006 15.8018 17.0076 15.8403 16.9391 15.9088C16.8705 15.9774 16.832 16.0703 16.832 16.1672V17.9946C16.8323 18.0914 16.8709 18.1842 16.9394 18.2527C17.0079 18.3212 17.1007 18.3598 17.1975 18.3601H18.6594C18.7563 18.3601 18.8493 18.3216 18.9178 18.253C18.9864 18.1845 19.0249 18.0915 19.0249 17.9946C19.0249 17.8977 18.9864 17.8047 18.9178 17.7362C18.8493 17.6676 18.7563 17.6291 18.6594 17.6291Z" fill="white"/>
</svg>
