<svg width="17" height="22" viewBox="0 0 17 22" fill="none" xmlns="http://www.w3.org/2000/svg">
<path d="M9.25214 15.2769C9.60016 15.0352 9.80769 14.6412 9.80769 14.2227C9.80769 13.512 9.22089 12.9336 8.5 12.9336C7.77911 12.9336 7.19231 13.512 7.19231 14.2227C7.19231 14.6412 7.39984 15.0352 7.74782 15.2769C7.97387 15.4343 8.07539 15.715 8.00068 15.9775L7.40045 18.0898H9.59951L8.99928 15.9775C8.92456 15.715 9.02608 15.4343 9.25214 15.2769Z" fill="white"/>
<path d="M15.0385 9.06641H1.96154C0.879903 9.06641 0 9.93377 0 11V20.0234C0 21.0897 0.879903 22 1.96154 22H15.0385C16.1201 22 17 21.0897 17 20.0234V11C17 9.93377 16.1201 9.06641 15.0385 9.06641ZM11.0911 18.5607C11.146 18.7545 11.1064 18.9635 10.9826 19.124C10.8587 19.2845 10.6659 19.3789 10.4615 19.3789H6.53846C6.33411 19.3789 6.14132 19.2845 6.01743 19.124C5.89355 18.9634 5.85397 18.7545 5.9089 18.5607L6.62978 16.0241C6.15662 15.5464 5.88462 14.9005 5.88462 14.2227C5.88462 12.8008 7.05757 11.6445 8.5 11.6445C9.94243 11.6445 11.1154 12.8008 11.1154 14.2227C11.1154 14.9005 10.8434 15.5464 10.3702 16.0241L11.0911 18.5607Z" fill="white"/>
<path d="M8.5 0C5.24999 0 2.61538 2.59707 2.61538 5.80078V7.77734H5.23077V5.80078C5.23077 4.02093 6.69443 2.57812 8.5 2.57812C10.3056 2.57812 11.7692 4.02093 11.7692 5.80078V7.77734H14.3846V5.80078C14.3846 2.59707 11.75 0 8.5 0Z" fill="white"/>
</svg>
