<svg width="76" height="100" viewBox="0 0 76 100" fill="none" xmlns="http://www.w3.org/2000/svg">
<g opacity="0.3">
<path d="M41.3625 69.4406C42.9184 68.342 43.8462 66.551 43.8462 64.6484C43.8462 61.4184 41.2228 58.7891 38 58.7891C34.7772 58.7891 32.1538 61.4184 32.1538 64.6484C32.1538 66.551 33.0816 68.342 34.6373 69.4406C35.6479 70.1559 36.1018 71.4318 35.7677 72.625L33.0844 82.2266H42.9154L40.2321 72.625C39.8981 71.432 40.3519 70.1559 41.3625 69.4406Z" fill="#25303F"/>
<path d="M67.2308 41.2109H8.76923C3.93368 41.2109 0 45.1535 0 50V91.0156C0 95.8621 3.93368 100 8.76923 100H67.2308C72.0663 100 76 95.8621 76 91.0156V50C76 45.1535 72.0663 41.2109 67.2308 41.2109ZM49.5838 84.3666C49.8293 85.2478 49.6524 86.1977 49.0985 86.9271C48.5447 87.6566 47.6828 88.0859 46.7692 88.0859H29.2308C28.3172 88.0859 27.4553 87.6568 26.9015 86.9271C26.3476 86.1975 26.1707 85.2477 26.4162 84.3666L29.639 72.8367C27.5237 70.6652 26.3077 67.7297 26.3077 64.6484C26.3077 58.1854 31.5515 52.9297 38 52.9297C44.4485 52.9297 49.6923 58.1854 49.6923 64.6484C49.6923 67.7297 48.4763 70.6652 46.361 72.8367L49.5838 84.3666Z" fill="#25303F"/>
<path d="M38 0C23.4706 0 11.6923 11.8049 11.6923 26.3672V35.3516H23.3846V26.3672C23.3846 18.277 29.928 11.7188 38 11.7188C46.072 11.7188 52.6154 18.277 52.6154 26.3672V35.3516H64.3077V26.3672C64.3077 11.8049 52.5294 0 38 0Z" fill="#25303F"/>
</g>
</svg>
