<svg width="15" height="18" viewBox="0 0 15 18" fill="none" xmlns="http://www.w3.org/2000/svg">
<path d="M1.81198 8.05233L6.00436 3.91777L6.00436 16.255C6.00436 16.2911 6.00623 16.3268 6.00988 16.362C6.06423 16.8899 6.51623 17.3018 7.0658 17.3018C7.65205 17.3018 8.12723 16.8331 8.12723 16.255L8.12723 3.91777L12.3196 8.05233C12.7342 8.46108 13.4062 8.46108 13.8208 8.05233C14.2352 7.6435 14.2352 6.98076 13.8208 6.57192L7.81636 0.650375C7.40189 0.241627 6.72979 0.241627 6.31524 0.650375L0.310886 6.57192C0.304407 6.57829 0.298038 6.58474 0.291763 6.59127C0.247836 6.63682 0.208877 6.68531 0.174878 6.73614C-0.019433 7.0264 -0.0518111 7.39101 0.0777179 7.70605C0.129533 7.832 0.207256 7.95008 0.310886 8.05233C0.317365 8.0587 0.323903 8.06498 0.330501 8.07117C0.746346 8.461 1.40394 8.45472 1.81198 8.05233Z" fill="#29C859"/>
</svg>
