<svg width="16" height="16" viewBox="0 0 16 16" fill="none" xmlns="http://www.w3.org/2000/svg">
<path d="M7.20001 14H11.76C11.5234 14.5913 11.1148 15.098 10.5871 15.4545C10.0594 15.8111 9.43686 16.0011 8.79999 16H3.19999C2.77973 16.0001 2.36356 15.9174 1.97527 15.7567C1.58697 15.5959 1.23416 15.3602 0.936993 15.063C0.639822 14.7658 0.404117 14.413 0.243344 14.0247C0.0825714 13.6364 -0.000118122 13.2203 1.26646e-07 12.8V6.39998C0.00094687 5.62073 0.285713 4.8685 0.801045 4.28397C1.31638 3.69944 2.02699 3.32264 2.79998 3.22403V9.60001C2.79998 12.024 4.77597 14 7.20001 14ZM14 3.39998H15.696C15.6468 3.32788 15.5905 3.26088 15.528 3.19999L12.8 0.471863C12.7411 0.409581 12.6738 0.355814 12.6 0.312113V1.99999C12.6018 2.37075 12.7499 2.72581 13.012 2.98798C13.2742 3.25015 13.6293 3.39821 14 3.39998ZM14 4.59998C13.3109 4.59865 12.6503 4.3243 12.163 3.83699C11.6757 3.34969 11.4013 2.68914 11.4 1.99999V1.26642e-07H7.20001C6.77975 -0.00011812 6.36358 0.0825712 5.97528 0.243343C5.58699 0.404116 5.23417 0.63982 4.937 0.93699C4.63982 1.23416 4.40412 1.58697 4.24334 1.97527C4.08256 2.36356 3.99987 2.77973 3.99998 3.19999V9.60001C3.99987 10.0203 4.08257 10.4364 4.24335 10.8247C4.40413 11.213 4.63984 11.5658 4.93701 11.863C5.23418 12.1602 5.58699 12.3959 5.97529 12.5567C6.36358 12.7174 6.77975 12.8001 7.20001 12.8H12.8C13.2203 12.8001 13.6364 12.7174 14.0247 12.5566C14.413 12.3959 14.7658 12.1602 15.063 11.863C15.3602 11.5658 15.5959 11.213 15.7566 10.8247C15.9174 10.4364 16.0001 10.0203 16 9.60001V4.59998H14Z" fill="#2B61EE"/>
</svg>
