<svg width="50" height="50" viewBox="0 0 50 50" fill="none" xmlns="http://www.w3.org/2000/svg">
<rect width="50" height="50" rx="8.26668" fill="white"/>
<path d="M34.2715 31.1538C34.7298 31.1533 35.1691 30.9711 35.4932 30.647C35.8172 30.323 35.9995 29.8836 36 29.4254V16.7285C35.9995 16.2702 35.8172 15.8309 35.4932 15.5068C35.1691 15.1828 34.7298 15.0005 34.2715 15H21.5746C21.1164 15.0005 20.677 15.1828 20.353 15.5068C20.0289 15.8309 19.8467 16.2702 19.8462 16.7285V18.2308H29.4254C30.3117 18.2325 31.1612 18.5854 31.7879 19.2121C32.4146 19.8388 32.7675 20.6883 32.7692 21.5746V31.1538H34.2715Z" fill="#2B61EE"/>
<path d="M29.4254 19.8462H16.7285C15.7739 19.8462 15 20.62 15 21.5746V34.2715C15 35.2261 15.7739 36 16.7285 36H29.4254C30.38 36 31.1538 35.2261 31.1538 34.2715V21.5746C31.1538 20.62 30.38 19.8462 29.4254 19.8462Z" fill="#2B61EE"/>
<path d="M38.3337 13.5003C38.3337 16.722 35.722 19.3337 32.5003 19.3337C29.2787 19.3337 26.667 16.722 26.667 13.5003C26.667 10.2787 29.2787 7.66699 32.5003 7.66699C35.722 7.66699 38.3337 10.2787 38.3337 13.5003Z" fill="#29C859"/>
<path d="M32.2636 15.1664C32.0369 15.3894 31.6691 15.3894 31.4425 15.1664L30.1703 13.9151C29.9437 13.6922 29.9437 13.3304 30.1703 13.1075C30.3969 12.8845 30.7648 12.8845 30.9914 13.1075L31.7494 13.853C31.8066 13.9091 31.8995 13.9091 31.9568 13.853L34.0092 11.8342C34.2358 11.6112 34.6036 11.6112 34.8303 11.8342C34.9392 11.9413 35.0003 12.0866 35.0003 12.238C35.0003 12.3894 34.9392 12.5347 34.8303 12.6418L32.2636 15.1664Z" fill="white"/>
</svg>
