<svg width="50" height="50" viewBox="0 0 50 50" fill="none" xmlns="http://www.w3.org/2000/svg">
<rect width="50" height="50" rx="8.26668" fill="#1B2129"/>
<path d="M33.6678 21.2539V16.7988C33.6669 16.0568 33.3712 15.3454 32.8455 14.8207C32.3197 14.296 31.6069 14.0008 30.8634 14H19.18C18.4365 14.0008 17.7237 14.296 17.198 14.8207C16.6722 15.3454 16.3765 16.0568 16.3757 16.7988V17.5471C15.6934 17.7328 15.0912 18.1373 14.6619 18.6982C14.2326 19.2592 14.0001 19.9454 14 20.6512V32.7824C14.0009 33.6354 14.3408 34.4532 14.9451 35.0564C15.5494 35.6596 16.3688 35.999 17.2235 36H32.7765C33.6312 35.999 34.4505 35.6596 35.0549 35.0564C35.6592 34.4532 35.9991 33.6354 36 32.7824V24.3461C36.0002 23.6479 35.7728 22.9685 35.3521 22.4107C34.9313 21.8529 34.3401 21.4468 33.6678 21.2539ZM19.18 15.5187H30.8634C31.2035 15.5191 31.5295 15.6541 31.77 15.8941C32.0104 16.1341 32.1457 16.4594 32.146 16.7988V21.1285H27.4678L26.3678 19.113C26.0909 18.6049 25.6818 18.1808 25.1836 17.8853C24.6854 17.5898 24.1165 17.4339 23.537 17.4341H17.8974V16.7988C17.8978 16.4594 18.033 16.1341 18.2735 15.8941C18.5139 15.6541 18.84 15.5191 19.18 15.5187ZM27.0839 18.1935C27.0839 17.9921 27.164 17.7989 27.3067 17.6565C27.4494 17.5141 27.6429 17.4341 27.8447 17.4341H30.2981C30.4999 17.4341 30.6935 17.5141 30.8361 17.6565C30.9788 17.7989 31.059 17.9921 31.059 18.1935C31.059 18.3948 30.9788 18.588 30.8361 18.7304C30.6935 18.8728 30.4999 18.9528 30.2981 18.9528H27.8447C27.6429 18.9528 27.4494 18.8728 27.3067 18.7304C27.164 18.588 27.0839 18.3948 27.0839 18.1935ZM33.4447 28.0291C33.5874 28.1715 33.6676 28.3646 33.6676 28.566C33.6676 28.7674 33.5874 28.9605 33.4447 29.1029L31.1174 31.4261C30.9743 31.5667 30.7814 31.6451 30.5806 31.6444C30.3798 31.6436 30.1875 31.5636 30.0455 31.422C29.9036 31.2803 29.8235 31.0883 29.8227 30.8879C29.8219 30.6875 29.9005 30.495 30.0414 30.3522L31.0702 29.3254H28.5171C28.3153 29.3254 28.1218 29.2454 27.9791 29.103C27.8364 28.9605 27.7563 28.7674 27.7563 28.566C27.7563 28.3646 27.8364 28.1715 27.9791 28.029C28.1218 27.8866 28.3153 27.8066 28.5171 27.8066H31.07L30.0412 26.7798C29.8985 26.6374 29.8184 26.4442 29.8184 26.2428C29.8184 26.0414 29.8986 25.8482 30.0413 25.7058C30.184 25.5634 30.3776 25.4834 30.5794 25.4834C30.7812 25.4835 30.9747 25.5635 31.1174 25.7059L33.4447 28.0291Z" fill="white"/>
<path d="M38.3337 13.4998C38.3337 16.7215 35.722 19.3332 32.5003 19.3332C29.2787 19.3332 26.667 16.7215 26.667 13.4998C26.667 10.2782 29.2787 7.6665 32.5003 7.6665C35.722 7.6665 38.3337 10.2782 38.3337 13.4998Z" fill="#29C859"/>
<path d="M32.2636 15.1659C32.0369 15.3889 31.6691 15.3889 31.4425 15.1659L30.1703 13.9146C29.9437 13.6917 29.9437 13.3299 30.1703 13.107C30.3969 12.8841 30.7648 12.8841 30.9914 13.107L31.7494 13.8525C31.8066 13.9087 31.8995 13.9087 31.9568 13.8525L34.0092 11.8337C34.2358 11.6107 34.6036 11.6107 34.8303 11.8337C34.9392 11.9408 35.0003 12.0861 35.0003 12.2375C35.0003 12.3889 34.9392 12.5342 34.8303 12.6413L32.2636 15.1659Z" fill="white"/>
</svg>
