<svg width="74" height="74" viewBox="0 0 74 74" fill="none" xmlns="http://www.w3.org/2000/svg">
<rect x="0.850098" y="0.850586" width="72.5" height="72.5" rx="11.9867" fill="white"/>
<path d="M50.3957 32.2106V25.3254C50.3944 24.1787 49.9373 23.0792 49.1248 22.2683C48.3123 21.4574 47.2107 21.0013 46.0617 21H28.0055C26.8564 21.0013 25.7548 21.4575 24.9423 22.2683C24.1298 23.0792 23.6728 24.1787 23.6715 25.3254V26.4818C22.617 26.7689 21.6864 27.3941 21.023 28.2609C20.3595 29.1278 20.0001 30.1883 20 31.2791V50.0274C20.0014 51.3457 20.5267 52.6096 21.4606 53.5418C22.3946 54.474 23.6609 54.9984 24.9817 55H49.0182C50.3391 54.9984 51.6054 54.474 52.5393 53.5418C53.4733 52.6096 53.9986 51.3457 54 50.0274V36.9894C54.0004 35.9103 53.6489 34.8605 52.9987 33.9984C52.3484 33.1363 51.4348 32.5087 50.3957 32.2106ZM28.0055 23.3471H46.0617C46.5872 23.3477 47.0911 23.5563 47.4627 23.9272C47.8343 24.2981 48.0433 24.8009 48.0439 25.3254V32.0168H40.8138L39.1138 28.9019C38.6859 28.1167 38.0536 27.4612 37.2837 27.0045C36.5137 26.5479 35.6346 26.307 34.7389 26.3072H26.0232V25.3254C26.0238 24.801 26.2329 24.2981 26.6045 23.9272C26.9761 23.5564 27.4799 23.3477 28.0055 23.3471ZM40.2205 27.4808C40.2205 27.1695 40.3444 26.871 40.5649 26.6509C40.7855 26.4309 41.0845 26.3072 41.3964 26.3072H45.188C45.4999 26.3072 45.799 26.4309 46.0195 26.6509C46.24 26.871 46.3639 27.1695 46.3639 27.4808C46.3639 27.792 46.24 28.0905 46.0195 28.3106C45.799 28.5307 45.4999 28.6544 45.188 28.6544H41.3964C41.0845 28.6544 40.7855 28.5307 40.5649 28.3106C40.3444 28.0905 40.2205 27.792 40.2205 27.4808ZM50.051 42.6813C50.2715 42.9014 50.3953 43.1998 50.3953 43.5111C50.3953 43.8223 50.2715 44.1208 50.051 44.3409L46.4542 47.9312C46.2331 48.1485 45.9349 48.2698 45.6246 48.2686C45.3143 48.2674 45.017 48.1438 44.7976 47.9248C44.5782 47.7059 44.4544 47.4092 44.4532 47.0995C44.452 46.7899 44.5735 46.4923 44.7912 46.2716L46.3812 44.6847H42.4356C42.1237 44.6847 41.8246 44.561 41.6041 44.3409C41.3836 44.1208 41.2597 43.8223 41.2597 43.5111C41.2597 43.1998 41.3836 42.9013 41.6041 42.6812C41.8246 42.4612 42.1237 42.3375 42.4356 42.3375H46.381L44.791 40.7506C44.5705 40.5305 44.4466 40.2319 44.4466 39.9207C44.4466 39.6094 44.5706 39.3109 44.7911 39.0908C45.0117 38.8707 45.3108 38.7471 45.6227 38.7471C45.9345 38.7472 46.2336 38.8708 46.4542 39.091L50.051 42.6813Z" fill="#2B61EE"/>
<path d="M56.4338 20.4261C56.4338 25.0975 52.6468 28.8844 47.9754 28.8844C43.304 28.8844 39.5171 25.0975 39.5171 20.4261C39.5171 15.7547 43.304 11.9678 47.9754 11.9678C52.6468 11.9678 56.4338 15.7547 56.4338 20.4261Z" fill="#29C859"/>
<path d="M47.6322 22.8419C47.3035 23.1653 46.7702 23.1653 46.4416 22.8419L44.597 21.0275C44.2682 20.7043 44.2682 20.1797 44.597 19.8565C44.9255 19.5332 45.4588 19.5332 45.7875 19.8565L46.8866 20.9374C46.9696 21.0189 47.1043 21.0189 47.1874 20.9374L50.1633 18.0102C50.4918 17.6869 51.0252 17.6869 51.3539 18.0102C51.5117 18.1655 51.6004 18.3762 51.6004 18.5957C51.6004 18.8153 51.5117 19.0259 51.3539 19.1812L47.6322 22.8419Z" fill="white"/>
</svg>
