<svg width="24" height="21" viewBox="0 0 24 21" fill="none" xmlns="http://www.w3.org/2000/svg">
<path d="M5.80123 1.85837C5.54882 1.85891 5.2354 1.87389 4.89788 1.97518C4.44785 2.11023 3.96597 2.43545 3.64021 2.98407C3.41854 3.3574 3.35633 3.76769 3.39122 4.17412L3.39085 5.81401C3.39082 5.81728 3.39082 5.82054 3.39085 5.82381V12.2998C3.61218 12.2674 3.83829 12.2503 4.0682 12.2503C6.64715 12.2503 8.75974 14.3608 8.75974 16.9366C8.75974 17.4964 8.65986 18.0342 8.47718 18.5331H21.1278C21.4722 18.533 21.7512 18.2542 21.7511 17.9102V15.3064H18.733C17.7571 15.3064 16.9109 14.8562 16.3813 14.1962C15.8673 13.5555 15.6404 12.7713 15.6332 12.012C15.626 11.2522 15.8389 10.4582 16.3562 9.80836C16.8894 9.13859 17.7479 8.6941 18.733 8.6941H21.7511V5.82381C21.7512 5.47983 21.4722 5.20095 21.1278 5.20088H20.3745V2.48265C20.3744 2.13867 20.0952 1.85988 19.7508 1.86H18.0839C17.7396 1.86004 17.4605 2.13879 17.4605 2.48265C17.4605 2.8265 17.7396 3.10525 18.0839 3.10529H19.1275V5.20088H5.65142C5.62238 5.19701 5.5931 5.19516 5.5638 5.1954C5.24113 5.19771 4.96785 4.9771 4.7848 4.60686C4.60174 4.23662 4.61356 3.78662 4.71286 3.61939C4.89317 3.31572 5.0503 3.23003 5.25663 3.16811C5.46296 3.10619 5.72943 3.10432 6.02611 3.10567C6.59853 3.1083 6.84597 3.11059 7.34523 3.10528C7.68951 3.10166 7.96568 2.81997 7.96208 2.47611C7.95845 2.1321 7.67618 1.85621 7.33176 1.86C6.84121 1.8652 6.6066 1.86262 6.03198 1.86C5.96277 1.85964 5.88537 1.8582 5.80123 1.85837Z" fill="white"/>
<path d="M18.733 9.31671C17.9347 9.31671 17.2587 9.67514 16.8443 10.1957C16.4299 10.7162 16.2505 11.3667 16.2566 12.0062C16.2626 12.6457 16.4536 13.2906 16.8676 13.8066C17.2816 14.3226 17.9487 14.6837 18.733 14.6837H23.3766C23.5419 14.6837 23.7005 14.6181 23.8174 14.5013C23.9343 14.3845 24 14.2262 24 14.0611V9.93935C24 9.77423 23.9343 9.61588 23.8174 9.49912C23.7005 9.38236 23.5419 9.31675 23.3766 9.31671H18.733ZM18.733 10.562H22.7532V13.4384H18.733C18.3014 13.4384 18.0468 13.2847 17.8407 13.0278C17.6346 12.771 17.507 12.3852 17.5033 11.9942C17.4996 11.6032 17.6194 11.2231 17.8203 10.9708C18.0212 10.7185 18.2765 10.562 18.733 10.562Z" fill="white"/>
<path d="M18.901 12.7693C19.3262 12.7693 19.671 12.425 19.671 12.0003C19.671 11.5755 19.3262 11.2312 18.901 11.2312C18.4757 11.2312 18.131 11.5755 18.131 12.0003C18.131 12.425 18.4757 12.7693 18.901 12.7693Z" fill="white"/>
<path d="M15.3528 8.27013e-06C15.2597 0.000425219 15.1678 0.020766 15.0832 0.05966L7.87809 3.36778C7.74319 3.42983 7.63357 3.53606 7.5674 3.66886C7.50123 3.80166 7.48248 3.95306 7.51425 4.09796C7.54603 4.24287 7.62642 4.37258 7.74211 4.46559C7.8578 4.55861 8.00184 4.60935 8.15036 4.60941H16.8646C16.9737 4.60942 17.081 4.58209 17.1767 4.52993C17.2724 4.47776 17.3535 4.40243 17.4125 4.31084C17.4715 4.21925 17.5066 4.11433 17.5144 4.0057C17.5223 3.89707 17.5028 3.78821 17.4576 3.68909L15.9479 0.380971C15.897 0.269318 15.8155 0.174315 15.7129 0.106925C15.6102 0.0395346 15.4906 0.00250353 15.3678 0.000104174C15.3628 1.38975e-05 15.3578 -1.64539e-05 15.3528 8.27013e-06Z" fill="white"/>
<path d="M4.06824 12.8731C1.82875 12.8731 0 14.6999 0 16.9367C0 19.1735 1.82875 21 4.06824 21C6.30773 21 8.13638 19.1735 8.13638 16.9367C8.13638 14.6999 6.30773 12.8731 4.06824 12.8731ZM5.67155 16.314C6.01583 16.3141 6.29491 16.5928 6.29494 16.9367C6.29491 17.2805 6.01583 17.5593 5.67155 17.5593C4.60264 17.5593 3.53374 17.5593 2.46483 17.5593C2.12059 17.5592 1.84157 17.2805 1.84153 16.9367C1.84157 16.5929 2.12059 16.3141 2.46483 16.314C3.53374 16.314 4.60264 16.314 5.67155 16.314Z" fill="white"/>
</svg>
