<svg width="112" height="100" viewBox="0 0 112 100" fill="none" xmlns="http://www.w3.org/2000/svg">
<g opacity="0.3">
<path d="M27.0724 8.84938C25.8945 8.85195 24.4319 8.92329 22.8568 9.40561C20.7566 10.0487 18.5079 11.5974 16.9877 14.2098C15.9532 15.9876 15.6629 17.9414 15.8257 19.8768L15.824 27.6858C15.8238 27.7013 15.8238 27.7168 15.824 27.7324V58.5705C16.8568 58.4163 17.912 58.3349 18.9849 58.3349C31.02 58.3349 40.8788 68.3848 40.8788 80.6504C40.8788 83.3161 40.4127 85.8771 39.5602 88.2531H98.5962C100.203 88.2526 101.506 86.9247 101.505 85.2867V72.8876H87.4208C82.8666 72.8876 78.9177 70.7439 76.4461 67.6008C74.0472 64.5501 72.9883 60.8159 72.9548 57.2C72.9213 53.582 73.9149 49.8008 76.3289 46.7065C78.8171 43.5171 82.8236 41.4005 87.4208 41.4005H101.505V27.7324C101.506 26.0944 100.203 24.7664 98.5962 24.7661H95.0812V11.8221C95.0807 10.1841 93.7778 8.85655 92.1706 8.85716H84.3914C82.7848 8.85735 81.4824 10.1847 81.4822 11.8221C81.4824 13.4595 82.7848 14.7869 84.3914 14.7871H89.2614V24.7661H26.3733C26.2378 24.7477 26.1011 24.7388 25.9644 24.74C24.4586 24.751 23.1833 23.7005 22.3291 21.9374C21.4748 20.1744 21.5299 18.0315 21.9933 17.2352C22.8348 15.7891 23.5681 15.3811 24.5309 15.0862C25.4938 14.7914 26.7373 14.7825 28.1218 14.7889C30.7931 14.8014 31.9479 14.8123 34.2777 14.7871C35.8844 14.7698 37.1732 13.4284 37.1564 11.791C37.1395 10.1529 35.8222 8.83908 34.2149 8.85713C31.9256 8.88192 30.8308 8.86961 28.1492 8.85713C27.8262 8.85545 27.4651 8.84858 27.0724 8.84938Z" fill="#25303F"/>
<path d="M87.4208 44.3653C83.6954 44.3653 80.5406 46.0721 78.6068 48.5508C76.6731 51.0294 75.8357 54.1272 75.8639 57.1724C75.8922 60.2175 76.7833 63.2885 78.7154 65.7456C80.6475 68.2026 83.7608 69.9224 87.4208 69.9224H109.091C109.862 69.9222 110.602 69.6098 111.148 69.0538C111.693 68.4978 112 67.7437 112 66.9575V47.3302C112 46.5439 111.693 45.7899 111.148 45.2339C110.602 44.6779 109.862 44.3655 109.091 44.3653H87.4208ZM87.4208 50.2951H106.182V63.9925H87.4208C85.4067 63.9925 84.2182 63.2604 83.2564 62.0372C82.2946 60.8141 81.6995 58.9771 81.6822 57.1153C81.6649 55.2535 82.224 53.4433 83.1614 52.2418C84.0988 51.0403 85.2902 50.2951 87.4208 50.2951Z" fill="#25303F"/>
<path d="M88.2045 60.8063C90.189 60.8063 91.7978 59.1667 91.7978 57.1441C91.7978 55.1214 90.189 53.4818 88.2045 53.4818C86.2199 53.4818 84.6111 55.1214 84.6111 57.1441C84.6111 59.1667 86.2199 60.8063 88.2045 60.8063Z" fill="#25303F"/>
<path d="M71.6464 3.93816e-05C71.2119 0.00202485 70.783 0.0988857 70.3884 0.284095L36.7644 16.037C36.1349 16.3325 35.6233 16.8384 35.3145 17.4708C35.0057 18.1032 34.9182 18.8241 35.0665 19.5141C35.2148 20.2041 35.59 20.8218 36.1298 21.2647C36.6697 21.7077 37.3419 21.9493 38.035 21.9496H78.7017C79.2105 21.9496 79.7113 21.8195 80.158 21.5711C80.6047 21.3227 80.9831 20.9639 81.2585 20.5278C81.5338 20.0917 81.6974 19.592 81.7341 19.0748C81.7708 18.5575 81.6795 18.0391 81.4686 17.5671L74.4236 1.81415C74.186 1.28246 73.8058 0.83007 73.3268 0.509165C72.8478 0.18826 72.2895 0.0119216 71.7164 0.000496066C71.6931 6.61786e-05 71.6697 -7.83517e-05 71.6464 3.93816e-05Z" fill="#25303F"/>
<path d="M18.9851 61.3004C8.53415 61.3004 0 69.9995 0 80.6509C0 91.3022 8.53415 100 18.9851 100C29.4361 100 37.9698 91.3022 37.9698 80.6509C37.9698 69.9995 29.4361 61.3004 18.9851 61.3004ZM26.4672 77.6859C28.0739 77.6861 29.3762 79.0134 29.3764 80.6509C29.3763 82.2883 28.0739 83.6157 26.4672 83.6158C21.479 83.6158 16.4908 83.6158 11.5026 83.6158C9.8961 83.6154 8.59398 82.2881 8.59382 80.6509C8.59398 79.0136 9.8961 77.6863 11.5026 77.6859C16.4908 77.6859 21.479 77.6859 26.4672 77.6859Z" fill="#25303F"/>
</g>
</svg>
