<svg width="21" height="21" viewBox="0 0 21 21" fill="none" xmlns="http://www.w3.org/2000/svg">
<path d="M7.49357 3.35918L1.09512 0C0.536527 0.209138 0 0.89455 0 1.68574V16.0289C0 16.6564 0.307618 17.2224 0.824375 17.5669L5.74626 20.6896C6.92304 21.4896 8.6133 20.6601 8.6133 19.1515V5.06953C8.6133 4.34351 8.20721 3.71597 7.49357 3.35918ZM6.15236 11.7305C6.15236 12.0705 5.87718 12.3457 5.53712 12.3457C5.19706 12.3457 4.92189 12.0705 4.92189 11.7305V9.26952C4.92189 8.92946 5.19706 8.65429 5.53712 8.65429C5.87718 8.65429 6.15236 8.92946 6.15236 9.26952V11.7305Z" fill="white"/>
<path d="M20.7567 10.0099L16.4312 6.99004C16.0436 6.60244 15.3809 6.87692 15.3809 7.42501V9.26952H10.459C10.1192 9.26952 9.84377 9.5449 9.84377 9.88476V11.1152C9.84377 11.455 10.1192 11.7305 10.459 11.7305H15.3809V13.5749C15.3809 14.123 16.0435 14.3975 16.4311 14.0099L20.7567 10.99C21.0811 10.7438 21.0811 10.256 20.7567 10.0099Z" fill="white"/>
<path d="M9.84377 12.9609V18.539H11.6895C12.7072 18.539 13.5352 17.7111 13.5352 16.6933V12.9609C11.3776 12.9609 12.0054 12.9609 9.84377 12.9609Z" fill="white"/>
<path d="M11.6894 0H3.74211L8.04142 2.25725L8.04376 2.25844C8.04392 2.25852 8.04396 2.25865 8.04396 2.25865L8.06537 2.26984C9.17087 2.82204 9.84377 3.87286 9.84377 5.06969V8.03905C12.0054 8.03905 11.3776 8.03905 13.5352 8.03905V1.8457C13.5351 0.827941 12.7072 0 11.6894 0Z" fill="white"/>
</svg>
