<svg width="50" height="50" viewBox="0 0 50 50" fill="none" xmlns="http://www.w3.org/2000/svg">
<rect width="50" height="50" rx="8.26668" fill="#1B2129"/>
<path d="M25.7964 29.6658C26.1649 29.4021 26.3846 28.9722 26.3846 28.5156C26.3846 27.7404 25.7633 27.1094 25 27.1094C24.2367 27.1094 23.6154 27.7404 23.6154 28.5156C23.6154 28.9722 23.8351 29.4021 24.2036 29.6658C24.4429 29.8374 24.5504 30.1436 24.4713 30.43L23.8358 32.7344H26.1642L25.5286 30.43C25.4495 30.1437 25.557 29.8374 25.7964 29.6658Z" fill="white"/>
<path d="M31.9231 22.8906H18.0769C16.9317 22.8906 16 23.8368 16 25V34.8438C16 36.0069 16.9317 37 18.0769 37H31.9231C33.0683 37 34 36.0069 34 34.8438V25C34 23.8368 33.0683 22.8906 31.9231 22.8906ZM27.7435 33.248C27.8017 33.4595 27.7598 33.6874 27.6286 33.8625C27.4974 34.0376 27.2933 34.1406 27.0769 34.1406H22.9231C22.7067 34.1406 22.5026 34.0376 22.3714 33.8625C22.2402 33.6874 22.1983 33.4594 22.2565 33.248L23.0198 30.4808C22.5188 29.9597 22.2308 29.2551 22.2308 28.5156C22.2308 26.9645 23.4727 25.7031 25 25.7031C26.5273 25.7031 27.7692 26.9645 27.7692 28.5156C27.7692 29.2551 27.4812 29.9597 26.9802 30.4808L27.7435 33.248Z" fill="white"/>
<path d="M25 13C21.5588 13 18.7692 15.8332 18.7692 19.3281V21.4844H21.5385V19.3281C21.5385 17.3865 23.0882 15.8125 25 15.8125C26.9118 15.8125 28.4615 17.3865 28.4615 19.3281V21.4844H31.2308V19.3281C31.2308 15.8332 28.4412 13 25 13Z" fill="white"/>
<path d="M37.67 12.835C37.67 16.0576 35.0576 18.67 31.835 18.67C28.6124 18.67 26 16.0576 26 12.835C26 9.61242 28.6124 7 31.835 7C35.0576 7 37.67 9.61242 37.67 12.835Z" fill="#ED6C75"/>
<path d="M29.8084 15.3331C29.6858 15.3403 29.5652 15.2991 29.472 15.2181C29.2884 15.0312 29.2884 14.7293 29.472 14.5424L33.4941 10.4735C33.6851 10.2927 33.9849 10.3027 34.1637 10.496C34.3253 10.6707 34.3348 10.9394 34.1857 11.1253L30.14 15.2181C30.0481 15.2979 29.9294 15.3391 29.8084 15.3331Z" fill="white"/>
<path d="M33.8257 15.3331C33.7014 15.3326 33.5823 15.2827 33.4941 15.1941L29.472 11.1253C29.3019 10.9242 29.325 10.6217 29.5237 10.4495C29.7011 10.2959 29.9627 10.2959 30.14 10.4495L34.1857 14.5184C34.3767 14.6993 34.3866 15.0026 34.2078 15.1958C34.2007 15.2035 34.1933 15.2109 34.1857 15.2181C34.0867 15.3053 33.9563 15.3469 33.8257 15.3331Z" fill="white"/>
</svg>
