<svg width="73" height="73" viewBox="0 0 73 73" fill="none" xmlns="http://www.w3.org/2000/svg">
<rect y="0.000976562" width="72.5" height="72.5" rx="11.9867" fill="white"/>
<path d="M37.6946 44.693C38.2473 44.2865 38.5769 43.6239 38.5769 42.9199C38.5769 41.7248 37.6449 40.752 36.5 40.752C35.3551 40.752 34.4231 41.7248 34.4231 42.9199C34.4231 43.6239 34.7527 44.2865 35.3054 44.693C35.6644 44.9577 35.8256 45.4298 35.707 45.8713L34.7537 49.4238H38.2463L37.293 45.8713C37.1743 45.4299 37.3355 44.9577 37.6946 44.693Z" fill="#2B61EE"/>
<path d="M46.8846 34.248H26.1154C24.3975 34.248 23 35.7068 23 37.5V52.6758C23 54.469 24.3975 56 26.1154 56H46.8846C48.6025 56 50 54.469 50 52.6758V37.5C50 35.7068 48.6025 34.248 46.8846 34.248ZM40.6153 50.2156C40.7025 50.5417 40.6397 50.8931 40.4429 51.163C40.2461 51.433 39.9399 51.5918 39.6154 51.5918H33.3846C33.0601 51.5918 32.7539 51.433 32.5571 51.163C32.3603 50.8931 32.2975 50.5416 32.3847 50.2156L33.5297 45.9496C32.7782 45.1461 32.3462 44.06 32.3462 42.9199C32.3462 40.5286 34.2091 38.584 36.5 38.584C38.7909 38.584 40.6538 40.5286 40.6538 42.9199C40.6538 44.06 40.2218 45.1461 39.4703 45.9496L40.6153 50.2156Z" fill="#2B61EE"/>
<path d="M36.5 19C31.3382 19 27.1538 23.3678 27.1538 28.7559V32.0801H31.3077V28.7559C31.3077 25.7625 33.6323 23.3359 36.5 23.3359C39.3677 23.3359 41.6923 25.7625 41.6923 28.7559V32.0801H45.8462V28.7559C45.8462 23.3678 41.6618 19 36.5 19Z" fill="#2B61EE"/>
<path d="M56 19C56 23.9706 51.9706 28 47 28C42.0294 28 38 23.9706 38 19C38 14.0294 42.0294 10 47 10C51.9706 10 56 14.0294 56 19Z" fill="#ED6C75"/>
<path d="M43.8741 22.8532C43.685 22.8643 43.499 22.8007 43.3553 22.6757C43.072 22.3874 43.072 21.9218 43.3553 21.6335L49.559 15.3576C49.8537 15.0786 50.3161 15.0941 50.5918 15.3922C50.8411 15.6618 50.8557 16.0762 50.6258 16.3629L44.3856 22.6757C44.2438 22.7989 44.0608 22.8624 43.8741 22.8532Z" fill="white"/>
<path d="M50.0705 22.8532C49.8788 22.8523 49.6951 22.7754 49.559 22.6388L43.3553 16.3629C43.0928 16.0528 43.1285 15.5862 43.435 15.3206C43.7086 15.0836 44.1121 15.0836 44.3856 15.3206L50.6258 21.5965C50.9204 21.8755 50.9357 22.3433 50.6599 22.6413C50.6489 22.6532 50.6375 22.6646 50.6258 22.6757C50.473 22.8102 50.2719 22.8744 50.0705 22.8532Z" fill="white"/>
</svg>
