<svg width="12" height="12" viewBox="0 0 12 12" fill="none" xmlns="http://www.w3.org/2000/svg">
<path d="M6.62491 0H1.37502C0.615054 0 0 0.615054 0 1.37502V9.12495C0 9.88493 0.615054 10.5 1.37502 10.5H4.74997V7.47499C4.75117 7.41614 4.75583 7.37923 4.76368 7.35465C4.81952 6.93396 5.14044 6.41605 6.23262 6.08C6.73073 5.92661 7.34113 5.82358 7.99991 5.77925V1.37502C7.99991 0.61503 7.38509 0 6.62491 0ZM5.99999 5.1249C5.99999 5.27648 5.90846 5.41359 5.76856 5.47143C5.722 5.49059 5.67341 5.50006 5.62504 5.50006C5.52747 5.50006 5.43152 5.46196 5.35997 5.39001L4.96507 4.99508L4.25449 5.65045C4.13454 5.76151 3.95654 5.78207 3.81403 5.70044L3.18809 5.34241L2.14005 6.39005C2.06709 6.46344 1.97094 6.49991 1.87499 6.49991C1.77902 6.49991 1.68307 6.46344 1.61009 6.39005C1.46354 6.24352 1.46354 6.00603 1.61009 5.85948L2.85992 4.60944C2.97946 4.48949 3.16412 4.46451 3.31107 4.54898L3.94749 4.91305L4.43411 4.46392L4.10998 4.13997C4.00254 4.03293 3.97048 3.87145 4.02854 3.73157C4.08659 3.59146 4.22346 3.49996 4.37504 3.49996H5.62508C5.83212 3.49996 6.00004 3.66809 6.00004 3.87509V5.1249H5.99999Z" fill="#2B61EE"/>
<path d="M8.74997 8.49997C10.5449 8.49997 12 8.05226 12 7.49998C12 6.9477 10.5449 6.49999 8.74997 6.49999C6.95503 6.49999 5.49994 6.9477 5.49994 7.49998C5.49994 8.05226 6.95503 8.49997 8.74997 8.49997Z" fill="#2B61EE"/>
<path d="M8.74997 10.25C10.545 10.25 12 9.8025 12 9.24999V8.61651C10.977 9.2075 9.216 9.24999 8.74997 9.24999C8.28394 9.24999 6.52297 9.207 5.49999 8.61651V9.24999C5.49999 9.80248 6.95499 10.25 8.74997 10.25Z" fill="#2B61EE"/>
<path d="M8.74997 11C8.28396 11 6.52297 10.957 5.49999 10.3665V11C5.49999 11.5525 6.95499 12 8.74997 12C10.545 12 12 11.5525 12 11V10.3665C10.977 10.957 9.21598 11 8.74997 11Z" fill="#2B61EE"/>
</svg>
