<svg width="100" height="100" viewBox="0 0 100 100" fill="none" xmlns="http://www.w3.org/2000/svg">
<g opacity="0.3">
<path d="M35.6837 15.9961L5.21486 0C2.55489 0.995898 0 4.25976 0 8.02734V76.3279C0 79.3161 1.46485 82.0116 3.9256 83.6521L27.3632 98.5218C32.9669 102.332 41.0157 98.3816 41.0157 91.1976V24.1406C41.0157 20.6834 39.0819 17.6951 35.6837 15.9961ZM29.2969 55.8593C29.2969 57.4787 27.9866 58.789 26.3673 58.789C24.7479 58.789 23.4376 57.4787 23.4376 55.8593V44.1406C23.4376 42.5213 24.7479 41.2109 26.3673 41.2109C27.9866 41.2109 29.2969 42.5213 29.2969 44.1406V55.8593Z" fill="#25303F"/>
<path d="M98.8414 47.666L78.2437 33.2859C76.398 31.4402 73.2424 32.7472 73.2424 35.3572V44.1406H49.8048C48.1868 44.1406 46.8751 45.4519 46.8751 47.0703V52.9296C46.8751 54.5476 48.1868 55.8593 49.8048 55.8593H73.2424V64.6423C73.2424 67.2523 76.3976 68.5595 78.2434 66.714L98.8414 52.3333C100.386 51.1611 100.386 48.8382 98.8414 47.666Z" fill="#25303F"/>
<path d="M46.8751 61.7187V88.2812H55.6642C60.5107 88.2812 64.4533 84.3386 64.4533 79.4921V61.7187C54.1788 61.7187 57.1685 61.7187 46.8751 61.7187Z" fill="#25303F"/>
<path d="M55.664 0H17.8196L38.2925 10.7488L38.3036 10.7545C38.3044 10.7549 38.3046 10.7555 38.3046 10.7555L38.4065 10.8088C43.6708 13.4383 46.8751 18.4422 46.8751 24.1414V38.2812C57.1685 38.2812 54.1788 38.2812 64.4533 38.2812V8.78905C64.4531 3.94257 60.5107 0 55.664 0Z" fill="#25303F"/>
</g>
</svg>
