<svg width="21" height="22" viewBox="0 0 21 22" fill="none" xmlns="http://www.w3.org/2000/svg">
<path d="M16.4064 14.7318C15.9164 14.7318 15.5226 15.1496 15.5226 15.6694V17.5355C15.5226 17.8975 15.2427 18.1946 14.8927 18.1946H11.5326V3.79573H14.8927C15.2427 3.79573 15.5226 4.09281 15.5226 4.45488V6.44153C15.5226 6.96141 15.9164 7.37919 16.4064 7.37919C16.8964 7.37919 17.2989 6.96141 17.2989 6.44153V4.45488C17.2989 3.05305 16.2227 1.91113 14.8927 1.91113H11.4976C11.3295 0.741061 10.2076 -0.245765 8.89888 0.0544034L1.68876 1.76261C0.691291 2.004 0 2.92307 0 3.99994V17.9996C0 19.0858 0.691291 19.9956 1.68876 20.237L8.89888 21.9452C10.144 22.2386 11.3228 21.3164 11.4976 20.0792H14.8927C16.2227 20.0792 17.2989 18.9373 17.2989 17.5355V15.6694C17.2989 15.1496 16.8964 14.7318 16.4064 14.7318ZM6.74634 10.9998C6.74634 10.3221 7.27132 9.76509 7.91011 9.76509C8.05009 9.76509 8.17261 9.79296 8.29512 9.83937C8.75009 10.0065 9.07384 10.4614 9.07384 10.9998C9.07384 11.5382 8.75009 11.9932 8.29512 12.1603C8.17261 12.2067 8.05009 12.2345 7.91011 12.2345C7.27132 12.2345 6.74634 11.6775 6.74634 10.9998Z" fill="#2B61EE"/>
<path d="M20.6351 10.2306L18.5529 8.56905C18.277 8.36132 17.9211 8.32359 17.6185 8.48405C17.316 8.64452 17.1291 8.96557 17.1291 9.32431V10.0513H14.682C14.1926 10.0513 13.7921 10.4761 13.7921 10.9954C13.7921 11.5147 14.1926 11.9395 14.682 11.9395H17.1291V12.657C17.1291 13.0158 17.316 13.3463 17.6185 13.5067C17.9211 13.6673 18.2859 13.6295 18.5529 13.4123L20.644 11.7413C20.8665 11.5619 21 11.2881 21 10.986C21 10.6933 20.8665 10.41 20.6351 10.2306Z" fill="#2B61EE"/>
</svg>
