<svg width="21" height="21" viewBox="0 0 21 21" fill="none" xmlns="http://www.w3.org/2000/svg">
<path d="M18.7738 6.9242V2.6716C18.773 1.96329 18.4907 1.28423 17.9889 0.783377C17.487 0.282528 16.8066 0.000800291 16.0969 0H4.94455C4.23484 0.000811231 3.55444 0.282543 3.05261 0.783389C2.55077 1.28423 2.26848 1.96329 2.26767 2.6716V3.38585C1.6164 3.56316 1.04161 3.94927 0.631842 4.48469C0.222074 5.02011 6.03204e-05 5.67514 0 6.34888V17.9287C0.000867683 18.7429 0.325311 19.5236 0.902153 20.0993C1.47899 20.6751 2.26113 20.999 3.07696 21H17.923C18.7388 20.999 19.521 20.6751 20.0978 20.0993C20.6747 19.5236 20.9991 18.7429 21 17.9287V9.8758C21.0002 9.20932 20.7831 8.56088 20.3815 8.0284C19.9799 7.49593 19.4156 7.10834 18.7738 6.9242ZM4.94455 1.4497H16.0969C16.4215 1.45007 16.7327 1.57892 16.9622 1.80799C17.1918 2.03706 17.3209 2.34764 17.3212 2.6716V6.8045H12.8556L11.8056 4.88062C11.5413 4.3956 11.1508 3.99073 10.6752 3.70868C10.1997 3.42662 9.65666 3.27783 9.10346 3.27799H3.72024V2.6716C3.72061 2.34765 3.84972 2.03707 4.07924 1.808C4.30876 1.57893 4.61995 1.45008 4.94455 1.4497ZM12.4891 4.00284C12.4891 3.8106 12.5657 3.62623 12.7019 3.49029C12.8381 3.35436 13.0228 3.27799 13.2154 3.27799H15.5573C15.7499 3.27799 15.9347 3.35436 16.0709 3.49029C16.2071 3.62623 16.2836 3.8106 16.2836 4.00284C16.2836 4.19508 16.2071 4.37945 16.0709 4.51539C15.9347 4.65132 15.7499 4.72769 15.5573 4.72769H13.2154C13.0228 4.72769 12.8381 4.65132 12.7019 4.51539C12.5657 4.37945 12.4891 4.19508 12.4891 4.00284ZM18.5609 13.3914C18.6971 13.5273 18.7736 13.7117 18.7736 13.9039C18.7736 14.0961 18.6971 14.2805 18.5609 14.4164L16.3393 16.634C16.2028 16.7682 16.0186 16.8431 15.8269 16.8423C15.6353 16.8416 15.4517 16.7653 15.3162 16.63C15.1807 16.4948 15.1042 16.3116 15.1035 16.1203C15.1027 15.929 15.1778 15.7452 15.3122 15.6089L16.2943 14.6288H13.8573C13.6646 14.6288 13.4799 14.5524 13.3437 14.4165C13.2075 14.2805 13.131 14.0961 13.131 13.9039C13.131 13.7117 13.2075 13.5273 13.3437 13.3914C13.4799 13.2554 13.6646 13.1791 13.8573 13.1791H16.2941L15.3121 12.1989C15.1759 12.0629 15.0994 11.8785 15.0994 11.6863C15.0994 11.494 15.1759 11.3097 15.3122 11.1737C15.4484 11.0378 15.6331 10.9615 15.8258 10.9615C16.0184 10.9615 16.2031 11.0379 16.3393 11.1738L18.5609 13.3914Z" fill="white"/>
</svg>
