<svg width="28" height="28" viewBox="0 0 28 28" fill="none" xmlns="http://www.w3.org/2000/svg">
<path d="M27.3369 24.0852L20.8995 17.5592C21.9933 15.7941 22.6281 13.7078 22.6281 11.4688C22.6281 5.13438 17.5624 0 11.3138 0C5.06524 0 0 5.13438 0 11.4688C0 17.8034 5.06501 22.9373 11.3138 22.9373C13.7175 22.9373 15.9439 22.1755 17.776 20.8811L24.1367 27.3295C24.5787 27.7771 25.1581 28 25.7368 28C26.3162 28 26.895 27.7771 27.3376 27.3295C28.2209 26.4332 28.2209 24.9813 27.3369 24.0852ZM11.3138 19.2216C7.09035 19.2216 3.66622 15.7508 3.66622 11.4693C3.66622 7.1877 7.09035 3.71667 11.3138 3.71667C15.5375 3.71667 18.9614 7.1877 18.9614 11.4693C18.9614 15.7508 15.5375 19.2216 11.3138 19.2216Z" fill="#2B61EE"/>
</svg>
