<svg width="100" height="100" viewBox="0 0 100 100" fill="none" xmlns="http://www.w3.org/2000/svg">
<path opacity="0.3" d="M89.399 32.9724V12.7219C89.3952 9.34901 88.051 6.11536 85.6613 3.73037C83.2716 1.34537 80.0315 0.00381091 76.652 0H23.5455C20.1659 0.00386301 16.9259 1.34544 14.5362 3.73042C12.1465 6.1154 10.8023 9.34902 10.7984 12.7219V16.1231C7.69713 16.9674 4.96004 18.806 3.00877 21.3557C1.05749 23.9053 0.00028724 27.0245 0 30.2327V85.3748C0.00413182 89.252 1.5491 92.9693 4.29597 95.7111C7.04283 98.4529 10.7673 99.9954 14.6522 100H85.3476C89.2326 99.9954 92.957 98.4529 95.7039 95.7111C98.4508 92.9693 99.9958 89.252 100 85.3748V47.0276C100.001 43.8539 98.9673 40.7661 97.0549 38.2305C95.1424 35.6949 92.4552 33.8493 89.399 32.9724ZM23.5455 6.90335H76.652C78.1977 6.90508 79.6796 7.51865 80.7725 8.60947C81.8655 9.70028 82.4803 11.1792 82.482 12.7219V32.4024H61.2172L56.2172 23.241C54.9586 20.9314 53.099 19.0035 50.8344 17.6604C48.5698 16.3172 45.9841 15.6087 43.3498 15.6095H17.7154V12.7219C17.7172 11.1793 18.332 9.70033 19.425 8.60952C20.5179 7.51872 21.9998 6.90513 23.5455 6.90335ZM59.4721 19.0611C59.4721 18.1457 59.8365 17.2678 60.4851 16.6204C61.1337 15.9731 62.0134 15.6095 62.9306 15.6095H74.0824C74.9997 15.6095 75.8793 15.9731 76.5279 16.6204C77.1765 17.2678 77.5409 18.1457 77.5409 19.0611C77.5409 19.9766 77.1765 20.8545 76.5279 21.5018C75.8793 22.1492 74.9997 22.5128 74.0824 22.5128H62.9306C62.0134 22.5128 61.1337 22.1492 60.4851 21.5018C59.8365 20.8545 59.4721 19.9766 59.4721 19.0611ZM88.3852 63.7684C89.0337 64.4157 89.3981 65.2937 89.3981 66.2091C89.3981 67.1245 89.0337 68.0024 88.3852 68.6497L77.8063 79.2095C77.156 79.8485 76.279 80.2052 75.3664 80.2017C74.4538 80.1981 73.5795 79.8348 72.9342 79.1907C72.2889 78.5467 71.9248 77.6741 71.9213 76.7633C71.9178 75.8525 72.2751 74.9772 72.9154 74.3282L77.5919 69.6607H65.987C65.0697 69.6607 64.19 69.2971 63.5414 68.6498C62.8928 68.0025 62.5285 67.1245 62.5285 66.2091C62.5285 65.2936 62.8928 64.4157 63.5414 63.7684C64.19 63.1211 65.0697 62.7574 65.987 62.7574H77.5911L72.9146 58.0899C72.266 57.4425 71.9017 56.5645 71.9018 55.649C71.9019 54.7335 72.2663 53.8556 72.915 53.2083C73.5637 52.561 74.4435 52.1974 75.3608 52.1975C76.2781 52.1975 77.1578 52.5613 77.8063 53.2087L88.3852 63.7684Z" fill="#25303F"/>
</svg>
