<svg width="74" height="74" viewBox="0 0 74 74" fill="none" xmlns="http://www.w3.org/2000/svg">
<rect x="0.849854" y="0.849609" width="72.5" height="72.5" rx="11.9867" fill="white"/>
<path d="M38.2546 43.8646C38.7889 43.4822 39.1075 42.859 39.1075 42.1969C39.1075 41.0728 38.2066 40.1578 37.0998 40.1578C35.993 40.1578 35.0921 41.0728 35.0921 42.1969C35.0921 42.859 35.4107 43.4822 35.945 43.8646C36.292 44.1135 36.4479 44.5575 36.3332 44.9727L35.4117 48.3141H38.7879L37.8663 44.9727C37.7516 44.5576 37.9075 44.1135 38.2546 43.8646Z" fill="#2B61EE"/>
<path d="M47.1383 34.0406H27.0613C25.4007 34.0406 24.0498 35.4126 24.0498 37.0992V51.3727C24.0498 53.0592 25.4007 54.4992 27.0613 54.4992H47.1383C48.7989 54.4992 50.1498 53.0592 50.1498 51.3727V37.0992C50.1498 35.4126 48.7989 34.0406 47.1383 34.0406ZM41.0779 49.0588C41.1622 49.3655 41.1015 49.696 40.9113 49.9499C40.7211 50.2037 40.4251 50.3531 40.1113 50.3531H34.0883C33.7745 50.3531 33.4785 50.2038 33.2883 49.9499C33.0981 49.6959 33.0374 49.3654 33.1217 49.0588L34.2285 45.0464C33.502 44.2907 33.0844 43.2691 33.0844 42.1969C33.0844 39.9477 34.8853 38.1187 37.0998 38.1187C39.3144 38.1187 41.1152 39.9477 41.1152 42.1969C41.1152 43.2691 40.6976 44.2907 39.9711 45.0464L41.0779 49.0588Z" fill="#2B61EE"/>
<path d="M37.0998 19.6992C32.1101 19.6992 28.0652 23.8073 28.0652 28.875V32.0016H32.0806V28.875C32.0806 26.0596 34.3277 23.7773 37.0998 23.7773C39.8719 23.7773 42.119 26.0596 42.119 28.875V32.0016H46.1344V28.875C46.1344 23.8073 42.0895 19.6992 37.0998 19.6992Z" fill="#2B61EE"/>
<path d="M56.4338 20.4251C56.4338 25.0965 52.6468 28.8835 47.9754 28.8835C43.304 28.8835 39.5171 25.0965 39.5171 20.4251C39.5171 15.7537 43.304 11.9668 47.9754 11.9668C52.6468 11.9668 56.4338 15.7537 56.4338 20.4251Z" fill="#29C859"/>
<path d="M47.6322 22.841C47.3035 23.1643 46.7702 23.1643 46.4416 22.841L44.597 21.0265C44.2682 20.7033 44.2682 20.1787 44.597 19.8556C44.9255 19.5322 45.4588 19.5322 45.7875 19.8556L46.8866 20.9365C46.9696 21.0179 47.1043 21.0179 47.1874 20.9365L50.1633 18.0093C50.4918 17.686 51.0252 17.686 51.3539 18.0093C51.5117 18.1645 51.6004 18.3752 51.6004 18.5947C51.6004 18.8143 51.5117 19.0249 51.3539 19.1802L47.6322 22.841Z" fill="white"/>
</svg>
