<svg width="7" height="7" viewBox="0 0 7 7" fill="none" xmlns="http://www.w3.org/2000/svg">
<path d="M7 3.5C7 5.433 5.433 7 3.5 7C1.567 7 0 5.433 0 3.5C0 1.567 1.567 0 3.5 0C5.433 0 7 1.567 7 3.5Z" fill="#29C859"/>
<path d="M3.35798 4.49965C3.22196 4.63344 3.00127 4.63344 2.86532 4.49965L2.10201 3.74884C1.966 3.61512 1.966 3.39804 2.10201 3.26432C2.23796 3.13053 2.45866 3.13053 2.59467 3.26432L3.04945 3.71159C3.08378 3.74529 3.13952 3.74529 3.17391 3.71159L4.40533 2.50033C4.54128 2.36655 4.76197 2.36655 4.89799 2.50033C4.9633 2.56458 5 2.65175 5 2.7426C5 2.83345 4.9633 2.92061 4.89799 2.98486L3.35798 4.49965Z" fill="white"/>
</svg>
