<svg width="26" height="26" viewBox="0 0 26 26" fill="none" xmlns="http://www.w3.org/2000/svg">
<rect width="26" height="26" rx="5" fill="white"/>
<path d="M13.6249 7H8.37502C7.61505 7 7 7.61505 7 8.37502V16.1249C7 16.8849 7.61505 17.5 8.37502 17.5H11.75V14.475C11.7512 14.4161 11.7558 14.3792 11.7637 14.3546C11.8195 13.934 12.1404 13.416 13.2326 13.08C13.7307 12.9266 14.3411 12.8236 14.9999 12.7793V8.37502C14.9999 7.61503 14.3851 7 13.6249 7ZM13 12.1249C13 12.2765 12.9085 12.4136 12.7686 12.4714C12.722 12.4906 12.6734 12.5001 12.625 12.5001C12.5275 12.5001 12.4315 12.462 12.36 12.39L11.9651 11.9951L11.2545 12.6504C11.1345 12.7615 10.9565 12.7821 10.814 12.7004L10.1881 12.3424L9.14005 13.3901C9.06709 13.4634 8.97094 13.4999 8.87499 13.4999C8.77902 13.4999 8.68307 13.4634 8.61009 13.3901C8.46354 13.2435 8.46354 13.006 8.61009 12.8595L9.85992 11.6094C9.97946 11.4895 10.1641 11.4645 10.3111 11.549L10.9475 11.913L11.4341 11.4639L11.11 11.14C11.0025 11.0329 10.9705 10.8715 11.0285 10.7316C11.0866 10.5915 11.2235 10.5 11.375 10.5H12.6251C12.8321 10.5 13 10.6681 13 10.8751V12.1249H13Z" fill="#2B61EE"/>
<path d="M15.75 15.5C17.5449 15.5 19 15.0523 19 14.5C19 13.9477 17.5449 13.5 15.75 13.5C13.955 13.5 12.4999 13.9477 12.4999 14.5C12.4999 15.0523 13.955 15.5 15.75 15.5Z" fill="#2B61EE"/>
<path d="M15.75 17.25C17.545 17.25 19 16.8025 19 16.25V15.6165C17.977 16.2075 16.216 16.25 15.75 16.25C15.2839 16.25 13.523 16.207 12.5 15.6165V16.25C12.5 16.8025 13.955 17.25 15.75 17.25Z" fill="#2B61EE"/>
<path d="M15.75 18C15.284 18 13.523 17.957 12.5 17.3665V18C12.5 18.5525 13.955 19 15.75 19C17.545 19 19 18.5525 19 18V17.3665C17.977 17.957 16.216 18 15.75 18Z" fill="#2B61EE"/>
</svg>
