<svg width="20" height="16" viewBox="0 0 20 16" fill="none" xmlns="http://www.w3.org/2000/svg">
<g opacity="0.3">
<path d="M18.1377 15.8004H14.9333C14.3046 15.8004 13.7919 15.3459 13.7919 14.7885V9.82128C13.7919 9.25855 14.3046 8.80402 14.9333 8.80402H18.1377C18.7725 8.80402 19.2852 9.25856 19.2852 9.82128V14.7885C19.2852 15.3459 18.7725 15.8004 18.1377 15.8004Z" fill="#25303F"/>
<path d="M11.7288 6.91019C12.3636 6.91019 12.8763 7.36472 12.8763 7.92745V14.7885C12.8763 15.3459 12.3636 15.8004 11.7288 15.8004H8.53051C7.89573 15.8004 7.38301 15.3459 7.38301 14.7885V7.92745C7.38301 7.36472 7.89574 6.91019 8.53051 6.91019H11.7288Z" fill="#25303F"/>
<path d="M2.12162 5.01635H5.32606C5.95473 5.01635 6.46746 5.47089 6.46746 6.03361V14.7885C6.46746 15.3459 5.95473 15.8004 5.32606 15.8004H2.12162C1.48684 15.8004 0.974121 15.3459 0.974121 14.7885V6.03361C0.974121 5.47088 1.48685 5.01635 2.12162 5.01635Z" fill="#25303F"/>
<path d="M7.4599 0.400391C7.60463 0.400391 7.75215 0.42493 7.89439 0.476945L13.5496 2.53769C13.3515 2.01166 13.6656 1.44081 14.2578 1.25817C14.3824 1.21976 14.5093 1.2017 14.6339 1.2017C15.1075 1.2017 15.5504 1.46422 15.715 1.88309L16.545 3.99889C16.735 4.48338 16.4875 5.01741 15.9681 5.2433L13.6996 6.22962C13.1327 6.47533 12.4467 6.26799 12.1679 5.76544C11.8917 5.26622 12.1214 4.66472 12.6795 4.41422L7.02432 2.35344C6.43951 2.14043 6.16066 1.54771 6.40095 1.02953C6.58256 0.637455 7.0095 0.400391 7.4599 0.400391Z" fill="#25303F"/>
</g>
</svg>
