<svg width="19" height="16" viewBox="0 0 19 16" fill="none" xmlns="http://www.w3.org/2000/svg">
<g opacity="0.3">
<path d="M1.55765 15.8004H4.7621C5.39076 15.8004 5.90349 15.3459 5.90349 14.7885V9.82128C5.90349 9.25855 5.39076 8.80402 4.7621 8.80402H1.55765C0.92288 8.80402 0.410156 9.25856 0.410156 9.82128V14.7885C0.410156 15.3459 0.922886 15.8004 1.55765 15.8004Z" fill="#25303F"/>
<path d="M7.96654 6.91018C7.33177 6.91018 6.81905 7.36472 6.81905 7.92745V14.7885C6.81905 15.3459 7.33178 15.8004 7.96654 15.8004H11.1649C11.7997 15.8004 12.3124 15.3459 12.3124 14.7885V7.92745C12.3124 7.36472 11.7997 6.91018 11.1649 6.91018H7.96654Z" fill="#25303F"/>
<path d="M17.5738 5.01635H14.3693C13.7407 5.01635 13.2279 5.47089 13.2279 6.03361V14.7885C13.2279 15.3459 13.7407 15.8004 14.3693 15.8004H17.5738C18.2085 15.8004 18.7213 15.3459 18.7213 14.7885V6.03361C18.7213 5.47088 18.2085 5.01635 17.5738 5.01635Z" fill="#25303F"/>
<path d="M4.23186 6.33296C4.37659 6.33296 4.52412 6.30842 4.66636 6.25641L10.3216 4.19566C10.1234 4.72169 10.4375 5.29255 11.0298 5.47518C11.1544 5.51359 11.2813 5.53166 11.4059 5.53166C11.8795 5.53166 12.3223 5.26913 12.4869 4.85026L13.317 2.73446C13.507 2.24997 13.2595 1.71594 12.7401 1.49005L10.4716 0.503731C9.90466 0.25802 9.2187 0.465357 8.93985 0.967911C8.66369 1.46713 8.89336 2.06863 9.45147 2.31913L3.79629 4.37991C3.21148 4.59292 2.93263 5.18564 3.17292 5.70382C3.35453 6.09589 3.78146 6.33296 4.23186 6.33296Z" fill="#25303F"/>
</g>
</svg>
