<svg width="18" height="20" viewBox="0 0 18 20" fill="none" xmlns="http://www.w3.org/2000/svg">
<g opacity="0.3">
<path d="M5.95099 14.4408C5.95099 10.8524 8.81548 7.93301 12.3364 7.93301V7.09083H14.0266C14.2609 7.09083 14.4708 6.94306 14.5536 6.71969C14.6365 6.49632 14.5751 6.24401 14.3994 6.08602L8.014 0.343836C7.80102 0.152315 7.48142 0.152315 7.26845 0.343836L0.883045 6.08602C0.707372 6.24401 0.645959 6.49632 0.728819 6.71969C0.811717 6.94302 1.02153 7.09083 1.25584 7.09083H2.94609V19.226C2.94609 19.5431 3.19835 19.8002 3.50951 19.8002H8.71853C7.04807 18.6252 5.95099 16.6613 5.95099 14.4408Z" fill="#25303F"/>
<path d="M12.7701 14.8658V16.6639C13.1048 16.4982 13.303 16.1685 13.3545 15.8566C13.3827 15.6852 13.4228 15.1109 12.7701 14.8658Z" fill="#25303F"/>
<path d="M11.4805 12.7115C11.437 12.9466 11.4943 13.1668 11.6266 13.2725C11.6871 13.3208 11.756 13.368 11.8311 13.4139V12.1764C11.6253 12.3009 11.5154 12.5226 11.4805 12.7115Z" fill="#25303F"/>
<path d="M12.3364 9.08145C9.43681 9.08145 7.07782 11.4857 7.07782 14.4408C7.07782 17.396 9.43681 19.8002 12.3364 19.8002C15.236 19.8002 17.5949 17.396 17.5949 14.4408C17.5949 11.4857 15.236 9.08145 12.3364 9.08145ZM14.2805 16.0153C14.2058 16.468 13.9824 16.8881 13.6512 17.1982C13.3986 17.4347 13.0995 17.5955 12.7701 17.674V18.0775C12.7701 18.3418 12.5599 18.5561 12.3006 18.5561C12.0413 18.5561 11.8311 18.3418 11.8311 18.0775V17.717C11.4091 17.6845 11.0667 17.5758 10.5765 17.249C10.3595 17.1043 10.2987 16.8078 10.4406 16.5866C10.5825 16.3655 10.8735 16.3034 11.0906 16.4481C11.3877 16.6462 11.5722 16.7258 11.8312 16.7559V14.4894C11.4968 14.3349 11.2491 14.1869 11.0471 14.0255C10.636 13.6969 10.4484 13.1254 10.5578 12.5343C10.6771 11.8887 11.1176 11.3751 11.7074 11.194C11.7491 11.1812 11.7902 11.17 11.8312 11.1597V10.8041C11.8312 10.5398 12.0414 10.3256 12.3007 10.3256C12.56 10.3256 12.7702 10.5398 12.7702 10.8041V11.1152C13.3588 11.2136 13.761 11.5343 13.8581 11.7274C13.9763 11.9626 13.8851 12.251 13.6543 12.3715C13.4574 12.4742 13.2226 12.4217 13.0845 12.2581C13.0545 12.2336 12.9461 12.1528 12.7702 12.0975V13.8476C12.8696 13.8854 12.9691 13.922 13.0666 13.9571C13.9573 14.278 14.4338 15.0858 14.2805 16.0153Z" fill="#25303F"/>
</g>
</svg>
