<svg width="18" height="17" viewBox="0 0 18 17" fill="none" xmlns="http://www.w3.org/2000/svg">
<g opacity="0.3">
<path d="M12.6239 13.706C10.9966 13.706 9.70996 12.4613 9.70996 10.9676C9.70996 9.47393 11.0345 8.22921 12.6239 8.22921H16.9758V7.87357C16.9758 6.34434 15.6513 5.13519 14.0619 5.13519C12.2833 5.13519 10.4668 5.13519 8.6882 5.13519C7.47722 5.13519 6.26624 5.13519 5.05526 5.13519C4.44977 5.13519 3.84428 5.17075 3.27663 5.09962C1.64938 4.85068 1.08173 2.82356 2.40624 1.86335C3.01173 1.40102 3.76859 1.47215 4.52545 1.47215H14.3268C14.8945 1.47215 15.3864 1.75666 15.5 2.32567C15.5756 2.788 15.5 3.28589 15.5 3.74821C15.5 4.67286 17.0137 4.67286 17.0137 3.74821C17.0137 3.28589 17.0515 2.82356 17.0137 2.36124C16.938 1.3299 16.1811 0.405248 15.1215 0.12074C14.4403 -0.0570771 13.57 0.0140497 12.8509 0.0140497C10.2398 0.0140497 7.62859 0.0140497 5.01742 0.0140497C4.26055 0.0140497 3.39016 -0.0570773 2.6333 0.156303C1.80075 0.369684 1.08173 0.903136 0.665459 1.61441C0.0221266 2.64575 0.135656 3.92603 0.135656 5.09962V14.0616C0.135656 15.5908 1.46016 16.8 3.04957 16.8H14.0619C15.6892 16.8 16.9758 15.5553 16.9758 14.0616V13.706H12.6239Z" fill="#25303F"/>
<path d="M12.6617 9.65175C11.9049 9.65175 11.2615 10.2563 11.2615 10.9676C11.2615 11.6789 11.9049 12.2834 12.6617 12.2834H17.0137V9.65175H12.6617Z" fill="#25303F"/>
<path d="M5.62291 2.61018C5.28232 2.61018 4.97957 2.61018 4.63898 2.61018C3.65506 2.61018 3.65506 4.03272 4.63898 4.03272H12.4725C13.4564 4.03272 13.4564 2.61018 12.4725 2.61018C10.2019 2.61018 7.93133 2.61018 5.62291 2.61018Z" fill="#25303F"/>
</g>
</svg>
