<svg width="18" height="18" viewBox="0 0 18 18" fill="none" xmlns="http://www.w3.org/2000/svg">
<path d="M1.70632 17.9907C1.26501 18.0166 0.830995 17.8682 0.495801 17.5767C-0.165267 16.904 -0.165267 15.8175 0.495801 15.1447L14.971 0.50103C15.6586 -0.149838 16.7375 -0.113656 17.3809 0.581913C17.9627 1.21091 17.9966 2.1777 17.4603 2.8468L2.89977 17.5767C2.56889 17.864 2.14184 18.0122 1.70632 17.9907Z" fill="#2B61EE"/>
<path d="M16.1645 17.9907C15.7173 17.9888 15.2886 17.8092 14.971 17.4905L0.495745 2.84674C-0.1167 2.12323 -0.0334351 1.03438 0.681758 0.414751C1.32009 -0.138251 2.26149 -0.138251 2.89977 0.414751L17.4603 15.0585C18.1477 15.7095 18.1832 16.801 17.5397 17.4964C17.5141 17.5241 17.4876 17.5508 17.4603 17.5767C17.1037 17.8904 16.6345 18.0403 16.1645 17.9907Z" fill="#2B61EE"/>
</svg>
