<svg width="13" height="13" viewBox="0 0 13 13" fill="none" xmlns="http://www.w3.org/2000/svg">
<path d="M12.8875 6.16848C12.8875 9.51322 10.1761 12.2247 6.83133 12.2247C3.48659 12.2247 0.775146 9.51322 0.775146 6.16848C0.775146 2.82375 3.48659 0.112305 6.83133 0.112305C10.1761 0.112305 12.8875 2.82375 12.8875 6.16848Z" fill="#ED6C75"/>
<path d="M4.7279 8.7613C4.60064 8.76879 4.47547 8.72599 4.3788 8.64192C4.18816 8.44791 4.18816 8.13457 4.3788 7.94056L8.55331 3.71747C8.75159 3.52977 9.06274 3.5402 9.24828 3.7408C9.41607 3.92219 9.42585 4.201 9.27118 4.39397L5.07208 8.64192C4.97666 8.72478 4.85351 8.7675 4.7279 8.7613Z" fill="white"/>
<path d="M8.8975 8.7613C8.76851 8.76075 8.64489 8.70895 8.55331 8.61706L4.37879 4.39395C4.20217 4.1853 4.22618 3.87128 4.43243 3.69259C4.61652 3.53311 4.88801 3.53311 5.07208 3.69259L9.27118 7.91568C9.46942 8.10343 9.47967 8.41821 9.29407 8.61876C9.28669 8.62674 9.27906 8.63445 9.27118 8.64192C9.16836 8.73238 9.03304 8.7756 8.8975 8.7613Z" fill="white"/>
</svg>
