<svg width="90" height="100" viewBox="0 0 90 100" fill="none" xmlns="http://www.w3.org/2000/svg">
<g opacity="0.5">
<path d="M54.3751 58.8517V57.8126C54.2992 56.1458 53.565 54.5766 52.3326 53.4475C51.1002 52.3184 49.4698 51.721 47.7971 51.7859H20.693V64.8784H47.7971C49.4698 64.9432 51.1002 64.3459 52.3326 63.2168C53.565 62.0877 54.2992 60.5185 54.3751 58.8517ZM38.6338 58.3217C38.5734 57.1043 38.8803 55.8968 39.5149 54.8549C40.1496 53.8131 41.0828 52.9846 42.1943 52.4764C43.3058 51.9682 44.5445 51.8036 45.7507 52.0038C46.957 52.204 48.0754 52.7598 48.9617 53.5996C49.848 54.4394 50.4615 55.5246 50.7232 56.7152C50.9848 57.9059 50.8826 59.1474 50.4297 60.2796C49.9768 61.4118 49.1939 62.3827 48.1821 63.0672C47.1703 63.7517 45.9759 64.1184 44.7531 64.1199C43.1705 64.1589 41.6371 63.5702 40.4897 62.483C39.3423 61.3959 38.6748 59.8992 38.6338 58.3217Z" fill="#25303F"/>
<path d="M52.2484 20.6236C52.2457 19.5689 51.8241 18.5583 51.076 17.8125C50.3278 17.0668 49.3139 16.6466 48.2558 16.6439H3.99265C2.93458 16.6466 1.92063 17.0668 1.17246 17.8125C0.424288 18.5583 0.00275182 19.5689 0 20.6236V25.1852H52.2484V20.6236Z" fill="#25303F"/>
<path d="M79.8425 40.0234H27.3126C25.64 39.9585 24.0095 40.5559 22.7771 41.685C21.5447 42.8141 20.8105 44.3833 20.7347 46.0501V48.5543H47.8388C50.3691 48.4872 52.8228 49.4231 54.6617 51.1568C56.5007 52.8904 57.5748 55.2803 57.6484 57.8022V58.8413C57.5721 61.3614 56.4968 63.7486 54.6582 65.48C52.8195 67.2114 50.3673 68.1459 47.8388 68.0788H20.7347V70.5934C20.8105 72.2602 21.5447 73.8294 22.7771 74.9585C24.0095 76.0876 25.64 76.6849 27.3126 76.6201H79.8425C81.5152 76.6849 83.1456 76.0876 84.378 74.9585C85.6104 73.8294 86.3447 72.2602 86.4205 70.5934V46.0501C86.3447 44.3833 85.6104 42.8141 84.378 41.685C83.1456 40.5559 81.5152 39.9585 79.8425 40.0234Z" fill="#25303F"/>
<path d="M17.503 70.5934V46.0501C17.5794 43.53 18.6546 41.1428 20.4933 39.4114C22.3319 37.6799 24.7841 36.7454 27.3126 36.8126H52.2484V28.3752H0V89.0476H52.2484V79.8413H27.3126C24.7823 79.9084 22.3286 78.9725 20.4897 77.2388C18.6507 75.5052 17.5766 73.1153 17.503 70.5934Z" fill="#25303F"/>
<path d="M0 96.0199C0.00275182 97.0745 0.424288 98.0852 1.17246 98.831C1.92063 99.5767 2.93458 99.9969 3.99265 99.9996H48.2558C49.3139 99.9969 50.3278 99.5767 51.076 98.831C51.8241 98.0852 52.2457 97.0745 52.2484 96.0199V92.2688H0V96.0199Z" fill="#25303F"/>
<path d="M44.7635 55.7448C44.2653 55.799 43.7935 55.9957 43.405 56.3114C43.0165 56.627 42.728 57.048 42.5743 57.5234C42.4206 57.9989 42.4083 58.5086 42.5389 58.9909C42.6694 59.4732 42.9373 59.9075 43.3101 60.2414C43.6829 60.5753 44.1447 60.7945 44.6397 60.8725C45.1347 60.9505 45.6418 60.884 46.0998 60.681C46.5577 60.478 46.9469 60.1472 47.2203 59.7285C47.4938 59.3099 47.6398 58.8213 47.6407 58.3217C47.5977 57.6013 47.2715 56.9268 46.7329 56.4445C46.1943 55.9621 45.4868 55.7107 44.7635 55.7448Z" fill="#25303F"/>
<path d="M73.8379 29.9442C76.5781 29.9442 79.2567 29.1343 81.535 27.6169C83.8133 26.0995 85.5891 23.9427 86.6377 21.4194C87.6863 18.896 87.9607 16.1194 87.4261 13.4406C86.8915 10.7618 85.572 8.3012 83.6344 6.36991C81.6969 4.43862 79.2283 3.12339 76.5408 2.59055C73.8533 2.0577 71.0676 2.33118 68.5361 3.37639C66.0045 4.4216 63.8408 6.19159 62.3184 8.46255C60.7961 10.7335 59.9835 13.4034 59.9835 16.1347C59.9863 19.7964 61.4468 23.3073 64.0444 25.8965C66.642 28.4856 70.1644 29.9415 73.8379 29.9442ZM73.619 17.8492C72.042 17.7656 70.5527 17.1001 69.4408 15.9823C68.329 14.8644 67.6742 13.3742 67.604 11.8017C67.6578 10.3799 68.198 9.01917 69.1348 7.94556C70.0715 6.87195 71.3486 6.15003 72.7538 5.89967V3.95657H75.9854V5.91006C77.3551 6.19003 78.5912 6.91939 79.4964 7.98168C80.4015 9.04397 80.9234 10.3779 80.9788 11.7705H77.7472C77.5881 10.9737 77.1567 10.2564 76.5266 9.74099C75.8965 9.22557 75.1065 8.94387 74.2914 8.94387C73.4763 8.94387 72.6863 9.22557 72.0562 9.74099C71.4261 10.2564 70.9947 10.9737 70.8356 11.7705C70.9202 12.6026 71.3292 13.3683 71.9745 13.9028C72.6199 14.4372 73.45 14.6977 74.2862 14.628C75.9205 14.7039 77.4676 15.3851 78.6245 16.5383C79.7814 17.6914 80.4648 19.2335 80.541 20.8626C80.4982 22.197 80.0352 23.4841 79.2175 24.5415C78.3999 25.599 77.2691 26.3731 75.9854 26.7542V28.3024H72.7538V27.1387C71.1529 27.0203 69.6516 26.3199 68.5349 25.1704C67.4183 24.021 66.7642 22.5027 66.697 20.9041H69.9078C69.9078 22.5874 71.5653 23.959 73.5982 23.959C75.631 23.959 77.2885 22.5874 77.2885 20.9041C77.196 20.019 76.761 19.2048 76.0758 18.6343C75.3906 18.0639 74.5092 17.7822 73.619 17.8492Z" fill="#25303F"/>
<ellipse cx="73.8461" cy="16.2791" rx="16.1538" ry="16.2791" fill="#25303F"/>
<path d="M74.5121 22.9272C74.3427 23.1196 74.1051 23.2373 73.8495 23.2552C73.3055 23.2504 72.8623 22.803 72.8576 22.2537L72.7889 10.2617C72.8038 9.71046 73.2586 9.28104 73.8047 9.30253C74.2986 9.32197 74.7067 9.70616 74.7609 10.2026L74.83 22.2652C74.8122 22.5198 74.6985 22.7567 74.5121 22.9272Z" fill="white"/>
<path d="M80.4091 16.9729C80.2259 17.1563 79.9778 17.2589 79.7183 17.2584L67.8416 17.189C67.2967 17.1433 66.8866 16.6606 66.9255 16.1109C66.9603 15.6202 67.3443 15.2325 67.8302 15.1974L79.7416 15.2317C80.2875 15.2167 80.7472 15.6516 80.7684 16.203C80.7692 16.225 80.7694 16.2469 80.7688 16.2688C80.7513 16.5448 80.621 16.7998 80.4091 16.9729Z" fill="white"/>
</g>
</svg>
