<svg width="39" height="43" viewBox="0 0 39 43" fill="none" xmlns="http://www.w3.org/2000/svg">
<path d="M23.5625 25.3064V24.8596C23.5297 24.1429 23.2115 23.4681 22.6775 22.9826C22.1434 22.4971 21.4369 22.2402 20.7121 22.2681H8.96695V27.8979H20.7121C21.4369 27.9258 22.1434 27.6689 22.6775 27.1834C23.2115 26.6979 23.5297 26.0231 23.5625 25.3064ZM16.7413 25.0785C16.7151 24.555 16.8481 24.0358 17.1231 23.5878C17.3981 23.1398 17.8025 22.7835 18.2842 22.565C18.7658 22.3465 19.3026 22.2757 19.8253 22.3618C20.348 22.4479 20.8327 22.6869 21.2167 23.048C21.6008 23.4091 21.8667 23.8757 21.98 24.3877C22.0934 24.8997 22.0491 25.4335 21.8529 25.9204C21.6566 26.4072 21.3174 26.8247 20.8789 27.1191C20.4405 27.4134 19.9229 27.5711 19.393 27.5717C18.7072 27.5885 18.0427 27.3354 17.5455 26.8679C17.0483 26.4004 16.7591 25.7568 16.7413 25.0785Z" fill="white"/>
<path d="M22.641 8.8683C22.6398 8.4148 22.4571 7.98022 22.1329 7.65955C21.8087 7.33888 21.3693 7.1582 20.9108 7.15702H1.73015C1.27165 7.1582 0.832273 7.33888 0.508066 7.65955C0.183858 7.98022 0.00119246 8.4148 0 8.8683V10.8298H22.641V8.8683Z" fill="white"/>
<path d="M34.5984 17.2102H11.8355C11.1107 17.1823 10.4041 17.4392 9.87009 17.9247C9.33605 18.4102 9.01788 19.085 8.98502 19.8017V20.8785H20.7301C21.8266 20.8497 22.8899 21.2521 23.6868 21.9976C24.4836 22.743 24.9491 23.7707 24.981 24.8551V25.3019C24.9479 26.3856 24.482 27.4121 23.6852 28.1566C22.8884 28.9011 21.8258 29.3029 20.7301 29.274H8.98502V30.3553C9.01788 31.072 9.33605 31.7468 9.87009 32.2323C10.4041 32.7178 11.1107 32.9747 11.8355 32.9468H34.5984C35.3232 32.9747 36.0298 32.7178 36.5638 32.2323C37.0979 31.7468 37.416 31.072 37.4489 30.3553V19.8017C37.416 19.085 37.0979 18.4102 36.5638 17.9247C36.0298 17.4392 35.3232 17.1823 34.5984 17.2102Z" fill="white"/>
<path d="M7.58464 30.3553V19.8017C7.61772 18.7181 8.08367 17.6916 8.88042 16.9471C9.67717 16.2025 10.7398 15.8007 11.8355 15.8296H22.641V12.2015H0V38.2906H22.641V34.3319H11.8355C10.739 34.3608 9.67575 33.9583 8.87886 33.2129C8.08198 32.4674 7.61655 31.4397 7.58464 30.3553Z" fill="white"/>
<path d="M0 41.2887C0.00119246 41.7422 0.183858 42.1768 0.508066 42.4975C0.832273 42.8181 1.27165 42.9988 1.73015 43H20.9108C21.3693 42.9988 21.8087 42.8181 22.1329 42.4975C22.4571 42.1768 22.6398 41.7422 22.641 41.2887V39.6757H0V41.2887Z" fill="white"/>
<path d="M19.3975 23.9704C19.1816 23.9937 18.9772 24.0783 18.8088 24.2141C18.6405 24.3498 18.5155 24.5308 18.4489 24.7352C18.3823 24.9397 18.3769 25.1589 18.4335 25.3662C18.4901 25.5736 18.6062 25.7604 18.7677 25.904C18.9292 26.0475 19.1294 26.1418 19.3439 26.1753C19.5584 26.2089 19.7781 26.1803 19.9766 26.093C20.175 26.0057 20.3437 25.8635 20.4621 25.6834C20.5806 25.5034 20.6439 25.2933 20.6443 25.0785C20.6257 24.7687 20.4843 24.4787 20.2509 24.2713C20.0176 24.0639 19.7109 23.9558 19.3975 23.9704Z" fill="white"/>
<path d="M31.9964 12.8762C33.1838 12.8762 34.3446 12.5279 35.3318 11.8754C36.3191 11.2229 37.0886 10.2955 37.543 9.21049C37.9974 8.12545 38.1163 6.9315 37.8846 5.77962C37.653 4.62775 37.0812 3.56968 36.2416 2.73923C35.402 1.90877 34.3322 1.34322 33.1677 1.1141C32.0031 0.884979 30.796 1.00257 29.699 1.45201C28.602 1.90145 27.6643 2.66255 27.0047 3.63906C26.345 4.61558 25.9929 5.76365 25.9929 6.93809C25.9941 8.5126 26.627 10.0223 27.7526 11.1356C28.8782 12.249 30.4046 12.875 31.9964 12.8762ZM31.9016 7.67532C31.2182 7.63937 30.5728 7.35322 30.091 6.87255C29.6092 6.39188 29.3255 5.75108 29.2951 5.0749C29.3184 4.46351 29.5525 3.87841 29.9584 3.41676C30.3643 2.9551 30.9177 2.64468 31.5266 2.53702V1.70149H32.927V2.54149C33.5206 2.66188 34.0562 2.9755 34.4484 3.43229C34.8406 3.88907 35.0668 4.46267 35.0908 5.06149H33.6904C33.6215 4.71884 33.4346 4.41042 33.1615 4.18879C32.8885 3.96716 32.5462 3.84603 32.1929 3.84603C31.8397 3.84603 31.4974 3.96716 31.2244 4.18879C30.9513 4.41042 30.7644 4.71884 30.6954 5.06149C30.7321 5.41929 30.9093 5.74854 31.189 5.97835C31.4686 6.20817 31.8284 6.32016 32.1907 6.29022C32.8989 6.32285 33.5693 6.61577 34.0706 7.11163C34.5719 7.60749 34.8681 8.27058 34.9011 8.97107C34.8826 9.54486 34.6819 10.0983 34.3276 10.553C33.9733 11.0077 33.4833 11.3406 32.927 11.5045V12.1702H31.5266V11.6698C30.8329 11.6189 30.1823 11.3177 29.6985 10.8235C29.2146 10.3292 28.9312 9.67634 28.902 8.98894H30.2934C30.2934 9.71277 31.0117 10.3026 31.8925 10.3026C32.7734 10.3026 33.4917 9.71277 33.4917 8.98894C33.4516 8.60835 33.2631 8.25821 32.9662 8.01292C32.6693 7.76762 32.2873 7.64651 31.9016 7.67532Z" fill="white"/>
<circle cx="32" cy="7" r="7" fill="#2B61EE"/>
<path d="M32.2886 9.85894C32.2152 9.94169 32.1123 9.99226 32.0015 10C31.7658 9.99793 31.5737 9.80553 31.5717 9.56933L31.5419 4.41276C31.5484 4.17574 31.7455 3.99109 31.9821 4.00033C32.1961 4.00869 32.373 4.17389 32.3964 4.38735L32.4264 9.57429C32.4187 9.68376 32.3694 9.78562 32.2886 9.85894Z" fill="white"/>
<path d="M34.844 7.29859C34.7646 7.37745 34.6571 7.42156 34.5446 7.42137L29.3981 7.39153C29.162 7.37186 28.9842 7.1643 29.0011 6.92792C29.0162 6.71695 29.1826 6.55024 29.3931 6.53514L34.5548 6.54987C34.7913 6.54343 34.9905 6.73043 34.9997 6.96754C35 6.97697 35.0001 6.9864 34.9998 6.99582C34.9923 7.1145 34.9358 7.22414 34.844 7.29859Z" fill="white"/>
</svg>
