<svg width="11" height="11" viewBox="0 0 11 11" fill="none" xmlns="http://www.w3.org/2000/svg">
<g opacity="0.3">
<path d="M11.0001 5.5C11.0001 8.53607 8.54045 11 5.5 11C2.46393 11 0 8.53607 0 5.5C0 2.45955 2.46393 0 5.5 0C8.54045 0 11.0001 2.45955 11.0001 5.5Z" fill="#99A3BC"/>
<path d="M7.06097 8.57373C7.06097 8.7562 6.91347 8.90119 6.73351 8.90119H4.26641C4.08394 8.90119 3.93901 8.7562 3.93901 8.57373C3.93901 8.39371 4.08394 8.24628 4.26641 8.24628H4.60387V5.15184H4.26641C4.08394 5.15184 3.93901 5.00685 3.93901 4.82438C3.93901 4.64436 4.08394 4.49692 4.26641 4.49692H6.06865C6.24861 4.49692 6.39605 4.64436 6.39605 4.82438V8.24628H6.73351C6.91347 8.24628 7.06097 8.39371 7.06097 8.57373Z" fill="#1B2129"/>
<path d="M6.34115 2.93866C6.34115 3.40355 5.96365 3.77848 5.50126 3.77848C5.03632 3.77848 4.65888 3.40355 4.65888 2.93866C4.65888 2.47622 5.03632 2.09884 5.50126 2.09884C5.96365 2.09884 6.34115 2.47622 6.34115 2.93866Z" fill="#1B2129"/>
</g>
</svg>
