<svg width="17" height="16" viewBox="0 0 17 16" fill="none" xmlns="http://www.w3.org/2000/svg">
<g opacity="0.3">
<path d="M16.3162 7.82903C16.3162 12.1195 12.8403 15.6014 8.54363 15.6014C4.25317 15.6014 0.77124 12.1195 0.77124 7.82903C0.77124 3.53238 4.25317 0.0566406 8.54363 0.0566406C12.8403 0.0566406 16.3162 3.53238 16.3162 7.82903Z" fill="#25303F"/>
<path d="M10.7495 12.1727C10.7495 12.4306 10.5411 12.6355 10.2868 12.6355H6.80037C6.54252 12.6355 6.3377 12.4306 6.3377 12.1727C6.3377 11.9183 6.54252 11.71 6.80037 11.71H7.27726V7.33703H6.80037C6.54252 7.33703 6.3377 7.13213 6.3377 6.87427C6.3377 6.61987 6.54252 6.41152 6.80037 6.41152H9.34723C9.60154 6.41152 9.80989 6.61987 9.80989 6.87427V11.71H10.2868C10.5411 11.71 10.7495 11.9183 10.7495 12.1727Z" fill="#E9E9FF"/>
<path d="M9.73231 4.20945C9.73231 4.8664 9.19884 5.39625 8.54541 5.39625C7.88837 5.39625 7.35499 4.8664 7.35499 4.20945C7.35499 3.55594 7.88837 3.02264 8.54541 3.02264C9.19884 3.02264 9.73231 3.55594 9.73231 4.20945Z" fill="#E9E9FF"/>
</g>
</svg>
