<svg width="73" height="73" viewBox="0 0 73 73" fill="none" xmlns="http://www.w3.org/2000/svg">
<rect x="6.10352e-05" width="72.5" height="72.5" rx="11.9867" fill="#1B2129"/>
<path d="M51.0001 36.5C51.0001 44.5042 44.5156 51 36.4999 51C28.4958 51 22.0001 44.5042 22.0001 36.5C22.0001 28.4843 28.4958 22 36.4999 22C44.5156 22 51.0001 28.4843 51.0001 36.5Z" fill="#D95B42"/>
<path d="M40.6152 44.6035C40.6152 45.0845 40.2263 45.4668 39.7519 45.4668H33.2478C32.7667 45.4668 32.3846 45.0845 32.3846 44.6035C32.3846 44.1289 32.7667 43.7402 33.2478 43.7402H34.1374V35.5821H33.2478C32.7667 35.5821 32.3846 35.1999 32.3846 34.7188C32.3846 34.2442 32.7667 33.8555 33.2478 33.8555H37.9991C38.4735 33.8555 38.8622 34.2442 38.8622 34.7188V43.7402H39.7519C40.2263 43.7402 40.6152 44.1289 40.6152 44.6035Z" fill="#E9E9FF"/>
<path d="M38.7175 29.7474C38.7175 30.973 37.7223 31.9615 36.5033 31.9615C35.2775 31.9615 34.2824 30.973 34.2824 29.7474C34.2824 28.5282 35.2775 27.5333 36.5033 27.5333C37.7223 27.5333 38.7175 28.5282 38.7175 29.7474Z" fill="#E9E9FF"/>
</svg>
